<svg width="163" height="75" viewBox="0 0 163 75" fill="none" xmlns="http://www.w3.org/2000/svg">
<g clip-path="url(#clip0)">
<path fill-rule="evenodd" clip-rule="evenodd" d="M74.9303 0H75.0697C75.0418 1.64804 75.0697 3.29609 75.0697 4.94413C75.7393 4.94413 76.4088 4.94413 77.0783 4.94413C77.1062 5.61453 77.0783 6.28492 77.1062 6.98324C78.501 6.98324 79.9237 6.98324 81.3186 6.98324C81.3186 6.31285 81.3186 5.64246 81.3186 4.94413C81.9881 4.94413 82.6576 4.94413 83.3271 4.94413C83.3271 3.68715 83.3271 2.4581 83.3271 1.20112C86.2284 2.15084 88.9622 3.63129 91.3056 5.58659C94.0115 7.7933 96.2154 10.5866 97.7776 13.7151C99.2003 16.6201 100.037 19.8045 100.26 23.0168C100.511 26.8715 99.8419 30.8101 98.3076 34.3575C97.136 37.095 95.4622 39.6089 93.3699 41.7318C92.8957 42.2905 92.3099 42.7374 91.8077 43.2682C92.6167 41.5084 93.091 39.581 93.1189 37.6536C93.1746 35.7821 92.7562 33.9385 92.1146 32.2067C91.5009 30.4749 90.5803 28.8827 89.6318 27.2905C87.679 24.0782 85.531 21.0056 83.6061 17.7933C82.4902 15.9497 81.4023 14.0503 80.5096 12.067C79.9795 10.8101 79.4495 9.52514 79.2263 8.18436C78.8358 10.0559 78.0547 11.8156 77.2178 13.5475C74.6234 18.6592 71.1642 23.2682 68.263 28.2123C67.3424 29.8045 66.5055 31.4525 65.9754 33.2402C65.3617 35.1676 65.1664 37.2067 65.4454 39.2179C65.9196 42.7654 67.8166 46.1173 70.6621 48.2961C70.9131 48.4916 71.1642 48.6872 71.4153 48.8548C70.0483 48.6034 68.7093 48.2402 67.3982 47.7654C63.7716 46.4525 60.4519 44.2458 57.8017 41.4246C55.4026 38.8827 53.5893 35.838 52.4735 32.5419C51.0786 28.5196 50.7997 24.162 51.5808 20C52.334 16.0335 54.0915 12.2626 56.6022 9.10615C57.6343 7.84916 58.7781 6.67598 60.0334 5.64246C63.1021 3.07263 66.8123 1.31285 70.69 0.502793C72.1127 0.223464 73.5354 0.139665 74.9303 0Z" fill="#FB6600"/>
<path fill-rule="evenodd" clip-rule="evenodd" d="M77.2458 13.5753C78.0827 11.8714 78.8638 10.1116 79.2543 8.21216C79.5054 9.55294 80.0075 10.8379 80.5376 12.0948C81.4303 14.0781 82.5182 15.9496 83.6341 17.8211C85.5869 21.0334 87.7349 24.106 89.6598 27.3183C90.6082 28.8825 91.5288 30.5027 92.1426 32.2345C92.8121 33.9663 93.2026 35.8099 93.1468 37.6814C93.1189 39.6088 92.6447 41.5362 91.8357 43.296C90.134 46.9272 86.8143 49.7485 82.9646 50.782C79.0869 51.8714 74.763 51.173 71.4154 48.8825C71.1643 48.7149 70.9132 48.5194 70.6622 48.3239C67.8167 46.1172 65.9197 42.7932 65.4455 39.2457C65.1665 37.2345 65.3618 35.1954 65.9755 33.268C66.5056 31.5082 67.3704 29.8602 68.263 28.2401C71.1922 23.3239 74.6514 18.7149 77.2458 13.5753ZM71.5548 27.3183C70.3553 29.1898 69.351 31.201 68.7373 33.3239C68.1515 35.363 68.0678 37.5138 68.4862 39.5809C69.0999 42.7094 70.8295 45.5585 73.2286 47.6535C73.3681 47.2904 73.4797 46.8993 73.6471 46.5362C73.9819 45.8099 74.4282 45.1675 74.9861 44.5809C73.396 43.268 72.0291 41.6479 71.1364 39.7485C70.2437 37.849 69.7974 35.7541 69.909 33.6591C70.0205 31.6758 70.6343 29.7485 71.4712 27.9608C72.057 26.7876 72.7265 25.6703 73.4239 24.5529C72.7265 25.4468 72.1407 26.3686 71.5548 27.3183ZM143.612 55.0837C145.899 53.8546 148.159 52.5418 150.447 51.3127C148.605 53.8546 146.792 56.3965 144.979 58.9384C144.505 59.525 144.114 60.1954 143.64 60.7541C143.612 58.8825 143.612 56.9831 143.612 55.0837ZM157.476 54.106C157.895 53.1842 158.788 52.5138 159.792 52.43C160.685 52.3183 161.633 52.6814 162.247 53.3518C162.721 53.8546 162.944 54.5529 163 55.2513V55.3909C162.944 56.4803 162.247 57.5138 161.215 57.9328C160.294 58.3518 159.15 58.1563 158.369 57.5697C157.309 56.7876 156.946 55.2792 157.476 54.106ZM159.736 52.877C158.592 53.0446 157.616 54.1339 157.672 55.3351C157.644 56.7038 158.955 57.877 160.294 57.7373C161.633 57.6814 162.721 56.3406 162.526 55.0278C162.414 53.687 161.047 52.6256 159.736 52.877ZM158.983 53.6032C158.955 54.6926 158.983 55.782 158.955 56.8714C159.094 56.8714 159.234 56.8714 159.373 56.8434C159.373 56.3965 159.373 55.9775 159.373 55.5585C159.569 55.5585 159.792 55.5585 159.987 55.5865C160.322 56.0054 160.685 56.4524 161.047 56.8434C161.215 56.8714 161.41 56.8434 161.577 56.8434C161.243 56.3686 160.824 55.9496 160.461 55.5027C160.601 55.2513 160.936 55.1675 160.991 54.8881C161.187 54.4691 161.019 53.8546 160.545 53.7149C160.071 53.5473 159.513 53.6311 158.983 53.6032ZM159.401 53.9663C159.401 54.3853 159.401 54.8043 159.401 55.2233C159.708 55.2233 160.015 55.2513 160.294 55.1675C160.657 55.0278 160.712 54.5529 160.573 54.2457C160.294 53.8825 159.792 53.9943 159.401 53.9663ZM59.3919 60.1395C61.0657 58.5194 63.409 57.6535 65.7245 57.7652C67.0356 57.8211 68.2909 58.2122 69.4347 58.7987C71.0806 59.6926 72.3917 61.1451 73.1729 62.849C73.2286 62.9887 73.2844 63.1563 73.3402 63.296C72.2244 63.296 71.0806 63.3239 69.9647 63.268C69.3789 62.2624 68.3746 61.5082 67.3146 61.0892C65.8639 60.5306 64.1901 60.6144 62.8232 61.3127C61.4842 61.9552 60.4799 63.1842 60.0056 64.5529C59.5872 65.8658 59.643 67.3462 60.2009 68.6032C60.731 69.8043 61.7073 70.782 62.879 71.3686C64.218 72.011 65.8081 72.1228 67.203 71.62C68.3746 71.2568 69.3231 70.3909 70.0484 69.4133C71.1364 69.3574 72.2523 69.3853 73.3681 69.4133C72.3081 72.458 69.3231 74.6647 66.1429 74.944C64.3575 75.1116 62.5442 74.6926 60.982 73.7987C59.3082 72.8211 57.9692 71.2568 57.2997 69.4412C56.6581 67.7932 56.5744 65.9496 56.9928 64.2457C57.3834 62.7094 58.1924 61.2289 59.3919 60.1395ZM126.985 57.7932C129.161 57.5697 131.393 58.2122 133.123 59.5529C134.266 60.4747 135.215 61.6479 135.773 63.0166C136.666 65.1116 136.693 67.5418 135.801 69.6367C135.131 71.2568 133.96 72.6535 132.481 73.6311C130.863 74.6647 128.938 75.1675 127.041 74.944C125.284 74.8043 123.582 74.0781 122.243 72.9328C120.737 71.6758 119.704 69.8602 119.342 67.9328C118.951 65.782 119.398 63.4635 120.625 61.6479C122.048 59.4971 124.447 58.0446 126.985 57.7932ZM127.292 60.782C126.372 60.8658 125.479 61.173 124.726 61.7038C123.415 62.5697 122.494 64.0222 122.299 65.5865C122.048 67.4859 122.801 69.4691 124.307 70.6702C125.674 71.8155 127.599 72.2345 129.301 71.7596C131.226 71.2568 132.844 69.6088 133.29 67.6535C133.709 66.0334 133.318 64.1898 132.286 62.877C131.142 61.4244 129.189 60.5865 127.292 60.782ZM81.0118 58.0166C82.9925 57.5138 85.1405 57.7094 86.9817 58.6311C88.9065 59.5809 90.4688 61.2848 91.222 63.296C90.1061 63.296 88.9902 63.296 87.8744 63.296C87.2328 62.3183 86.2564 61.5362 85.1684 61.1172C83.6899 60.5585 81.9324 60.6423 80.5376 61.4244C79.2822 62.0948 78.3337 63.2401 77.8874 64.5809C77.3852 66.0334 77.5247 67.6814 78.2779 68.9943C79.0312 70.4468 80.4539 71.5082 82.044 71.8434C83.941 72.2624 85.9774 71.592 87.2885 70.1954C87.5117 69.944 87.6791 69.6367 87.9581 69.4412C89.046 69.4133 90.134 69.4133 91.222 69.4412C90.3014 71.9831 88.0696 73.9943 85.4753 74.6926C82.9646 75.4189 80.1191 74.8602 78.0269 73.268C75.6278 71.5082 74.2887 68.4077 74.6235 65.4468C74.8188 63.4636 75.7672 61.592 77.19 60.1954C78.25 59.1619 79.5612 58.3797 81.0118 58.0166ZM0.0557933 58.1563C1.75749 58.1563 3.45918 58.1563 5.16088 58.1563C6.52781 58.1842 7.92264 58.1563 9.20589 58.687C10.3218 59.1619 11.2702 60.1116 11.5771 61.3127C11.9677 62.6535 11.5771 64.2457 10.4891 65.1675C10.3775 65.3071 10.1265 65.3909 10.1265 65.5865C10.9913 66.0054 11.8003 66.592 12.3024 67.43C13.0277 68.6311 13.0835 70.1395 12.6372 71.4524C12.1908 72.5976 11.326 73.6032 10.1823 74.106C9.17799 74.5529 8.03423 74.5809 6.94626 74.5809C4.63084 74.5809 2.34332 74.5809 0.0278966 74.5809C-0.0278966 69.4133 0.0278966 64.2177 0 59.0501C0 58.7429 0.0278966 58.4635 0.0557933 58.1563ZM3.12442 61.1451C3.09653 62.2904 3.09653 63.4636 3.12442 64.6088C4.24029 64.6088 5.32826 64.6088 6.44412 64.6088C7.00205 64.6088 7.55999 64.525 8.03423 64.2177C8.70375 63.7149 8.87113 62.7094 8.48057 62.011C8.17371 61.4803 7.53209 61.173 6.94626 61.173C5.66302 61.1172 4.40767 61.1451 3.12442 61.1451ZM3.12442 67.4021C3.12442 68.7987 3.12442 70.1954 3.12442 71.592C4.07291 71.62 4.9935 71.592 5.94198 71.592C6.83467 71.592 7.72737 71.62 8.56427 71.3686C8.95482 71.2568 9.28958 71.0334 9.51275 70.7261C9.81961 70.3071 9.84751 69.7485 9.76382 69.2736C9.65223 68.5473 9.15009 67.9328 8.45268 67.7094C7.50419 67.3742 6.49991 67.4021 5.49564 67.4021C4.74243 67.4021 3.93342 67.4021 3.12442 67.4021ZM14.6178 58.1563C18.4676 58.1563 22.3452 58.1563 26.1949 58.1563C26.1949 59.1619 26.167 60.1954 26.1949 61.201C23.3495 61.2568 20.504 61.201 17.6865 61.2289C17.7144 62.2066 17.6865 63.1842 17.7144 64.1898C19.0534 64.2177 20.3924 64.1898 21.7315 64.2177C21.0899 65.2513 20.3087 66.173 19.6392 67.2066C18.9976 67.2345 18.356 67.2066 17.7423 67.2066C17.7144 68.6591 17.7144 70.0837 17.7423 71.5362C20.5598 71.5362 23.3774 71.5082 26.2228 71.5362C26.2228 72.5418 26.2228 73.5753 26.2228 74.5809C22.3731 74.6088 18.4955 74.6088 14.6457 74.5809C14.6457 69.4133 14.6457 64.2177 14.6457 59.0501C14.6178 58.7429 14.6178 58.4635 14.6178 58.1563ZM33.727 58.1842C34.7871 58.1842 35.8472 58.1563 36.9072 58.1842C38.9716 63.6591 41.1196 69.106 43.184 74.5809C42.0681 74.5809 40.9801 74.6088 39.8643 74.5809C38.33 70.5865 36.8514 66.5641 35.345 62.5418C34.1176 65.6702 32.918 68.8546 31.7185 71.9831C31.4116 72.849 31.0211 73.687 30.77 74.5529C29.6541 74.6088 28.5661 74.5809 27.4503 74.5529C27.785 73.5473 28.2035 72.5976 28.5661 71.62C30.2678 67.1507 31.9974 62.6535 33.727 58.1842ZM44.6346 58.1563C48.4843 58.1563 52.3341 58.1563 56.2117 58.1563C56.2396 59.1619 56.2117 60.1954 56.2117 61.201C53.3941 61.2568 50.5487 61.201 47.7311 61.2289C47.7311 62.2066 47.7311 63.1842 47.7311 64.1619C49.0981 64.2177 50.4371 64.1619 51.804 64.1898C51.3019 64.944 50.744 65.6423 50.2418 66.3965C50.0466 66.6758 49.8792 66.9552 49.6002 67.2066C48.9865 67.2345 48.3449 67.2066 47.7311 67.2066C47.7311 68.6591 47.7311 70.0837 47.7311 71.5362C50.5487 71.5362 53.3941 71.5362 56.2117 71.5362C56.2117 72.5418 56.2117 73.5753 56.2117 74.5809C53.171 74.6088 50.1302 74.5809 47.0895 74.6088C46.2805 74.6088 45.4436 74.6367 44.6346 74.5809C44.6346 69.106 44.6067 63.6311 44.6346 58.1563ZM91.6404 58.1563C95.8249 58.1842 100.009 58.1563 104.194 58.1842C104.194 59.1898 104.194 60.2233 104.194 61.2289C102.604 61.2848 101.042 61.2289 99.4515 61.2568C99.4236 65.6982 99.4515 70.1395 99.4515 74.5809C98.3914 74.6088 97.3592 74.6088 96.2992 74.5809C96.2992 70.1395 96.2992 65.6982 96.2992 61.2848C94.737 61.2289 93.2026 61.2568 91.6404 61.2848C91.6125 60.2233 91.6125 59.1898 91.6404 58.1563ZM105.924 58.1563C107.597 58.1563 109.271 58.1563 110.945 58.1563C112.256 58.1563 113.567 58.1284 114.85 58.4077C115.715 58.5753 116.524 58.9943 117.11 59.6647C117.752 60.3351 118.114 61.2568 118.226 62.1786C118.337 63.1284 118.282 64.106 117.863 64.9719C117.194 66.4524 115.632 67.43 114.041 67.4859C112.368 67.5976 110.694 67.6256 109.02 67.6256C109.02 69.944 109.02 72.2624 109.02 74.5809C107.988 74.6088 106.928 74.6088 105.896 74.5809C105.896 71.62 105.896 68.6311 105.896 65.6703C105.896 63.1563 105.868 60.6703 105.924 58.1563ZM108.992 61.201C109.02 62.3183 108.964 63.4356 109.02 64.5529C110.164 64.6367 111.308 64.5529 112.423 64.5809C113.121 64.5529 113.846 64.6367 114.488 64.3015C115.436 63.7987 115.492 62.3183 114.683 61.6758C114.181 61.2848 113.511 61.2568 112.926 61.2289C111.614 61.201 110.303 61.2289 108.992 61.201ZM138.2 58.1563C138.172 63.6311 138.2 69.106 138.2 74.5529C138.981 74.5809 139.79 74.5529 140.571 74.5809C140.711 74.5529 140.906 74.6088 140.99 74.4691C142.998 71.7038 145.035 68.9384 147.015 66.173C147.462 65.5865 147.852 64.9161 148.382 64.3853C148.41 67.7652 148.382 71.173 148.382 74.5809C149.414 74.6088 150.474 74.6088 151.507 74.5809C151.507 69.106 151.507 63.6311 151.507 58.1563C150.642 58.1563 149.777 58.1563 148.912 58.1563C147.406 60.1954 145.983 62.2904 144.505 64.3574C143.444 65.8099 142.44 67.3183 141.352 68.7708C141.352 65.2513 141.352 61.7596 141.352 58.2401L141.296 58.1842C140.236 58.1563 139.204 58.1842 138.2 58.1563Z" fill="#004DFB"/>
</g>
<defs>
<clipPath id="clip0">
<rect width="163" height="75" fill="white"/>
</clipPath>
</defs>
</svg>
