<svg width="437" height="1135" viewBox="0 0 437 1135" fill="none" xmlns="http://www.w3.org/2000/svg">
<path d="M306.999 12.1206C306.999 12.1206 91.9993 321 202.999 632C313.999 943 123.999 1107 123.999 1107" stroke="#A4A4A4" stroke-width="2" stroke-linecap="round" stroke-dasharray="2 6"/>
<circle cx="123.567" cy="1106.57" r="18.5" transform="rotate(46.5688 123.567 1106.57)" fill="white" stroke="#C4C4C4" stroke-width="2"/>
<path d="M124.044 1091.8L113.522 1116.15L138.41 1106.97L132.823 1101.07L118.581 1111.36L129.631 1097.7L124.044 1091.8Z" fill="#C4C4C4"/>
<circle cx="232.199" cy="747.199" r="18.5" transform="rotate(-8.60813 232.199 747.199)" fill="white" stroke="#C4C4C4" stroke-width="2"/>
<path d="M220.348 738.373L234.328 760.915L241.01 735.246L232.975 736.462L233.285 754.027L228.383 737.157L220.348 738.373Z" fill="#C4C4C4"/>
<circle cx="177.059" cy="355.059" r="18.5" transform="rotate(8.1216 177.059 355.059)" fill="white" stroke="#C4C4C4" stroke-width="2"/>
<path d="M168.25 343.196C170.945 353.198 172.455 358.805 175.15 368.807L188.938 346.148L180.892 345L176.134 361.911L176.295 344.344L168.25 343.196Z" fill="#C4C4C4"/>
<circle cx="305" cy="15" r="7" fill="white" stroke="#A4A4A4" stroke-width="2"/>
</svg>
