<svg width="20" height="19" viewBox="0 0 20 19" fill="none" xmlns="http://www.w3.org/2000/svg">
<path fill-rule="evenodd" clip-rule="evenodd" d="M19.4495 9.02012C19.4493 9.17993 19.4491 9.33988 19.4491 9.5C19.4491 9.67906 19.4494 9.8579 19.4497 10.0366C19.4513 11.1669 19.453 12.2906 19.3873 13.4214C19.3137 14.9424 18.9691 16.29 17.8545 17.4046C16.7422 18.5168 15.3923 18.8638 13.8713 18.9375C12.7217 19.0022 11.5794 19.0009 10.4299 18.9996C10.2701 18.9995 10.1101 18.9993 9.95002 18.9993C9.79023 18.9993 9.63057 18.9995 9.47102 18.9996C8.32309 19.0009 7.18047 19.0022 6.02869 18.9375C4.50769 18.8638 3.16018 18.5192 2.04558 17.4046C0.933344 16.2923 0.586366 14.9424 0.512693 13.4214C0.448008 12.2717 0.449276 11.1274 0.450548 9.97904C0.450725 9.81945 0.450902 9.65978 0.450902 9.5C0.450902 9.3402 0.450725 9.18054 0.450548 9.02099C0.449276 7.87303 0.44801 6.7304 0.512693 5.5786C0.586366 4.05757 0.930968 2.71004 2.04558 1.59541C3.15781 0.483158 4.50769 0.136173 6.02869 0.0624986C7.17835 -0.00218365 8.32067 -0.000919281 9.47015 0.000352996C9.62995 0.000529875 9.7899 0.000706907 9.95002 0.000706907C10.1098 0.000706907 10.2695 0.000529953 10.429 0.000353113C11.577 -0.000919203 12.7196 -0.00218563 13.8713 0.0624986C15.3923 0.136173 16.7399 0.480781 17.8545 1.59541C18.9667 2.70766 19.3137 4.05757 19.3873 5.5786C19.452 6.72828 19.4508 7.87062 19.4495 9.02012ZM15.4596 6.70275C15.3255 6.2046 14.9327 5.81183 14.4346 5.67771C13.5245 5.42864 9.88417 5.42864 9.88417 5.42864C9.88417 5.42864 6.24384 5.42864 5.33375 5.66813C4.84518 5.80225 4.44283 6.2046 4.30871 6.70275C4.06922 7.61284 4.06922 9.50007 4.06922 9.50007C4.06922 9.50007 4.06922 11.3969 4.30871 12.2974C4.44283 12.7955 4.8356 13.1883 5.33375 13.3224C6.25342 13.5715 9.88417 13.5715 9.88417 13.5715C9.88417 13.5715 13.5245 13.5715 14.4346 13.332C14.9327 13.1979 15.3255 12.8051 15.4596 12.307C15.6991 11.3969 15.6991 9.50965 15.6991 9.50965C15.6991 9.50965 15.7087 7.61284 15.4596 6.70275ZM8.725 11.2433L11.7522 9.49978L8.725 7.75625V11.2433Z" fill="#A4A4A4"/>
</svg>
