<svg width="21" height="18" viewBox="0 0 21 18" fill="none" xmlns="http://www.w3.org/2000/svg">
<path d="M14.8182 17V15.2222C14.8182 14.2792 14.4542 13.3749 13.8064 12.7081C13.1585 12.0413 12.2798 11.6667 11.3636 11.6667H4.45455C3.53834 11.6667 2.65967 12.0413 2.01181 12.7081C1.36396 13.3749 1 14.2792 1 15.2222V17M20 17V15.2222C19.9994 14.4344 19.7447 13.6691 19.2757 13.0465C18.8068 12.4239 18.1502 11.9792 17.4091 11.7822M13.9545 1.11556C14.6976 1.31138 15.3563 1.75618 15.8266 2.37983C16.2969 3.00348 16.5522 3.77052 16.5522 4.56C16.5522 5.34948 16.2969 6.11652 15.8266 6.74017C15.3563 7.36382 14.6976 7.80862 13.9545 8.00444M11.3636 4.55556C11.3636 6.51923 9.81698 8.11111 7.90909 8.11111C6.0012 8.11111 4.45455 6.51923 4.45455 4.55556C4.45455 2.59188 6.0012 1 7.90909 1C9.81698 1 11.3636 2.59188 11.3636 4.55556Z" stroke="#006FB6" stroke-width="1.5" stroke-linecap="round" stroke-linejoin="round"/>
</svg>
