<svg width="136" height="42" viewBox="0 0 136 42" fill="none" xmlns="http://www.w3.org/2000/svg">
<path d="M7.75601 41.6375L15.41 0H0L7.65395 41.6375H7.75601Z" fill="white"/>
<path d="M39.5962 5.817C35.31 1.939 29.7992 0 23.0637 0H19.1857L17.1446 11.0217H21.4309H22.1452C29.0848 11.0217 32.8608 14.4915 32.8608 20.8188C32.8608 27.146 28.9828 30.6158 22.1452 30.6158H19.1857H13.4707L11.4297 41.6375H22.9616C29.6971 41.6375 35.208 39.6985 39.4942 35.8205C43.7804 31.9425 45.9235 26.9419 45.9235 20.8188C46.0256 14.6956 43.9845 9.69501 39.5962 5.817Z" fill="white"/>
<path d="M56.8433 30.7177V10.9194H63.2726C66.4362 10.9194 68.9875 11.8379 70.9265 13.6749C72.8655 15.5118 73.8861 17.859 73.8861 20.8185C73.8861 23.7781 72.8655 26.1253 70.9265 27.9622C68.9875 29.7992 66.4362 30.7177 63.2726 30.7177H56.8433ZM58.8843 28.7787H62.9664C65.7218 28.7787 67.865 28.0643 69.3957 26.6356C70.9265 25.2068 71.743 23.2678 71.743 20.8185C71.743 18.3693 70.9265 16.4303 69.3957 15.0015C67.865 13.5728 65.7218 12.8584 62.9664 12.8584H58.8843V28.7787Z" fill="white"/>
<path d="M81.0298 28.1663C79.0908 26.2273 78.1724 23.7781 78.1724 20.8186C78.1724 17.859 79.0908 15.4098 81.0298 13.4708C82.9688 11.5318 85.3161 10.5112 88.2756 10.5112C90.4187 10.5112 92.2556 11.0215 93.7864 11.94V14.0831C92.0515 12.9605 90.2146 12.4502 88.2756 12.4502C86.0304 12.4502 84.0914 13.2667 82.5606 14.7974C81.0298 16.3282 80.2134 18.3693 80.2134 20.7165C80.2134 23.1658 80.9278 25.1048 82.5606 26.6356C84.0914 28.1663 86.0304 28.9828 88.2756 28.9828C90.5207 28.9828 92.4597 28.3705 94.0926 27.0438V29.1869C92.4597 30.3095 90.5207 30.9218 88.1735 30.9218C85.3161 31.0238 82.9688 30.1053 81.0298 28.1663Z" fill="white"/>
<path d="M101.747 28.7787C100.216 27.2479 99.5015 25.1048 99.5015 22.3493V10.9194H101.543V22.3493C101.543 26.6355 103.788 29.1869 107.462 29.1869C111.135 29.1869 113.381 26.7376 113.381 22.3493V10.9194H115.422V22.2473C115.422 25.0027 114.707 27.2479 113.177 28.6766C111.646 30.2074 109.809 30.9218 107.36 30.9218C105.114 31.0238 103.175 30.3094 101.747 28.7787Z" fill="white"/>
<path d="M126.954 30.7177V12.8584H120.218V10.9194H135.934V12.8584H129.097V30.7177H126.954Z" fill="white"/>
</svg>
