<svg width="113" height="113" viewBox="0 0 113 113" fill="none" xmlns="http://www.w3.org/2000/svg">
<path d="M56.48 107.86C84.8564 107.86 107.86 84.856 107.86 56.4796C107.86 28.1032 84.8564 5.09961 56.48 5.09961C28.1037 5.09961 5.10005 28.1032 5.10005 56.4796C5.10005 84.856 28.1037 107.86 56.48 107.86Z" fill="url(#paint0_linear)"/>
<path fill-rule="evenodd" clip-rule="evenodd" d="M68.7472 1.83496C93.8589 7.39949 112.55 29.7986 112.55 56.4801C112.55 87.44 87.4399 112.55 56.48 112.55C53.7869 112.55 51.0645 112.409 48.4674 111.976L48.8127 109.904C51.2556 110.312 53.8532 110.45 56.48 110.45C86.2801 110.45 110.45 86.2802 110.45 56.4801C110.45 30.8016 92.4612 9.2407 68.2929 3.88523L68.7472 1.83496Z" fill="#006FB6"/>
<path fill-rule="evenodd" clip-rule="evenodd" d="M0.550049 56.4798C0.550049 25.5199 25.5201 0.549805 56.48 0.549805C59.3144 0.549805 62.0326 0.691406 64.7638 1.12265L64.4363 3.19696C61.8475 2.7882 59.2457 2.6498 56.48 2.6498C26.6799 2.6498 2.65005 26.6797 2.65005 56.4798C2.65005 82.297 20.7768 103.856 44.9416 109.073L44.4984 111.126C19.3833 105.704 0.550049 83.3026 0.550049 56.4798Z" fill="black"/>
<path d="M17.56 70.3397C16.86 70.4797 16.3 70.4797 15.88 70.1997C15.46 69.9197 15.04 69.3597 14.9 68.6597L14.76 68.0997L12.52 68.7997L12.1 67.5397L18.26 65.7197L18.82 67.6797C19.1 68.3797 19.1 69.0797 18.82 69.4997C18.68 69.7797 18.26 70.1997 17.56 70.3397ZM15.74 67.6797L15.88 68.0997C16.02 68.5197 16.16 68.7997 16.44 68.9397C16.72 69.0797 16.86 69.0797 17.28 69.0797C17.56 68.9397 17.84 68.7997 17.84 68.6597C17.98 68.5197 17.98 68.2397 17.84 67.8197L17.7 67.2597L15.74 67.6797Z" fill="white"/>
<path d="M15.88 77.3393L14.34 73.9793L20.08 71.3193L21.62 74.6793L20.64 75.0993L19.66 72.9993L18.4 73.5593L19.24 75.5193L18.26 75.9393L17.42 73.9793L15.88 74.6793L16.86 76.7793L15.88 77.3393Z" fill="white"/>
<path d="M18.68 82.0997L21.9 77.8997C21.06 78.5997 20.5 78.8797 20.22 79.1597L17.84 80.8397L17.14 79.8597L22.32 76.2197L23.44 77.7597L20.36 81.8197L25.26 80.2797L26.38 81.8197L21.2 85.4597L20.5 84.4797L23.02 82.7997C23.16 82.6597 23.3 82.6597 23.44 82.5197C23.58 82.3797 24 82.0997 24.7 81.6797L19.38 83.0797L18.68 82.0997Z" fill="white"/>
<path d="M29.74 89.5205C29.04 90.2205 28.34 90.6405 27.5 90.7805C26.66 90.7805 25.96 90.5005 25.26 89.8005C24.56 89.1005 24.14 88.4005 24.14 87.7005C24.14 86.8605 24.56 86.1605 25.26 85.3205C25.96 84.4805 26.8 84.2005 27.5 84.0605C28.2 84.0605 29.04 84.3405 29.74 85.0405C30.44 85.7405 30.86 86.4405 30.86 87.1405C30.72 87.9805 30.44 88.8205 29.74 89.5205ZM26.24 86.3005C25.82 86.8605 25.54 87.2805 25.4 87.7005C25.4 88.1205 25.54 88.5405 25.96 88.9605C26.8 89.6605 27.64 89.5205 28.62 88.5405C29.6 87.5605 29.74 86.5805 28.9 85.8805C28.48 85.4605 28.06 85.3205 27.64 85.4605C27.22 85.6005 26.8 85.8805 26.24 86.3005Z" fill="white"/>
<path d="M34.22 96.3807L33.1 95.6807L34.64 93.3008L32.54 91.9008L31 94.2807L29.88 93.5807L33.24 88.2607L34.36 88.9607L32.96 91.0607L35.06 92.4607L36.46 90.3607L37.58 91.0607L34.22 96.3807Z" fill="white"/>
<path d="M39.26 98.7601L38 98.2001L40.1 93.3001L38.56 92.6001L38.98 91.6201L43.46 93.5801L43.04 94.5601L41.5 93.8601L39.26 98.7601Z" fill="white"/>
<path d="M51.72 97.0807C51.72 97.5007 51.44 97.7807 51.16 98.0607C50.88 98.3407 50.46 98.3407 49.9 98.3407C50.46 98.4807 50.88 98.7607 51.16 99.0407C51.44 99.3207 51.58 99.7407 51.44 100.161C51.3 100.721 51.02 101.141 50.46 101.421C49.9 101.701 49.2 101.701 48.36 101.561C47.38 101.421 46.68 101.141 46.26 100.861L46.4 99.7407C46.68 99.8807 46.96 100.021 47.24 100.161C47.52 100.301 47.94 100.441 48.22 100.441C49.34 100.581 49.9 100.441 49.9 99.7407C49.9 99.4607 49.76 99.1807 49.48 99.0407C49.2 98.9007 48.64 98.6207 48.08 98.6207L47.52 98.4807L47.66 97.5008L48.22 97.6407C48.92 97.7807 49.34 97.7807 49.76 97.6407C50.04 97.5007 50.32 97.3607 50.32 97.0807C50.32 96.8007 50.32 96.6607 50.18 96.5207C50.04 96.3807 49.76 96.2407 49.34 96.2407C48.78 96.1007 48.08 96.2407 47.52 96.5207L47.1 95.5407C47.52 95.4007 47.94 95.2607 48.36 95.2607C48.78 95.2607 49.2 95.2607 49.76 95.2607C50.46 95.4007 51.02 95.6807 51.3 95.9607C51.58 96.2407 51.72 96.5207 51.72 97.0807Z" fill="white"/>
<path d="M57.6 102.121L57.18 100.581H54.8L54.38 102.121H52.98L55.36 95.6807H57.04L59.14 102.121H57.6ZM56.9 99.4607C56.48 98.0607 56.2 97.3607 56.2 97.0807C56.2 96.9407 56.06 96.8007 56.06 96.6607C55.92 97.0807 55.64 97.9207 55.22 99.4607H56.9Z" fill="white"/>
<path d="M68.52 99.1803L67.82 99.3203L68.1 100.58L66.84 100.86L66.56 99.6003L63.9 100.16L63.76 99.1803L65.58 94.5603L66.84 94.2803L67.68 98.2003L68.38 98.0603L68.52 99.1803ZM66.28 98.6203L66 97.5003C66 97.3603 65.86 97.0803 65.86 96.6603C65.86 96.3803 65.72 96.1003 65.72 96.1003C65.72 96.3803 65.58 96.6603 65.44 96.8003L64.74 98.7603L66.28 98.6203Z" fill="white"/>
<path d="M70.48 93.1597C71.04 92.8797 71.6 92.8797 72.02 93.0197C72.44 93.1597 72.72 93.4397 73 93.8597C73.14 94.1397 73.14 94.4197 73 94.8397C72.86 95.1197 72.72 95.3997 72.44 95.8197C73 95.9597 73.42 95.9597 73.7 96.2397C73.98 96.3797 74.26 96.6597 74.26 96.9397C74.4 97.4997 74.4 97.9197 74.12 98.3397C73.84 98.7597 73.42 99.1797 72.72 99.3197C72.02 99.5997 71.46 99.5997 71.04 99.4597C70.62 99.3197 70.2 99.0397 70.06 98.4797C69.92 98.1997 69.92 97.7797 69.92 97.4997C70.06 97.2197 70.2 96.7997 70.48 96.5197C70.06 96.3797 69.78 96.2397 69.5 96.0997C69.22 95.9597 69.08 95.6797 68.94 95.3997C68.8 94.9797 68.8 94.5597 69.08 94.1397C69.36 93.7197 69.92 93.2997 70.48 93.1597ZM70.76 93.9997C70.48 94.1397 70.34 94.1397 70.34 94.4197C70.2 94.5597 70.2 94.6997 70.34 94.9797C70.34 95.1197 70.48 95.2597 70.62 95.3997C70.76 95.5397 71.04 95.5397 71.32 95.5397C71.6 95.2597 71.74 95.1197 71.74 94.9797C71.74 94.8397 71.74 94.6997 71.74 94.4197C71.6 94.2797 71.6 94.1397 71.32 93.9997C71.18 93.9997 71.04 93.9997 70.76 93.9997ZM71.18 97.9197C71.32 98.1997 71.46 98.3397 71.6 98.3397C71.74 98.3397 72.02 98.3397 72.3 98.3397C72.58 98.1997 72.86 98.0597 72.86 97.9197C73 97.7797 73 97.4997 72.86 97.3597C72.86 97.2197 72.58 97.0797 72.44 96.9397C72.3 96.7997 71.88 96.7997 71.46 96.6597C71.18 97.0797 71.04 97.4997 71.18 97.9197Z" fill="white"/>
<path d="M84.2 92.8806L83.08 93.5806L81.68 91.4806C81.4 91.9006 81.12 92.1805 80.98 92.3205C80.7 92.6005 80.56 92.7406 80.28 92.8806C79.72 93.1606 79.3 93.3006 78.88 93.3006C78.46 93.3006 78.04 93.0206 77.76 92.6006L76.22 90.3605L77.34 89.6605L78.6 91.4806C78.74 91.7606 79.02 91.9006 79.16 91.9006C79.3 91.9006 79.58 91.9005 79.86 91.6205C80 91.4805 80.28 91.3406 80.42 91.2006C80.56 91.0606 80.84 90.7806 80.98 90.5006L79.58 88.2605L80.7 87.5605L84.2 92.8806Z" fill="white"/>
<path d="M89.52 88.1202L88.12 87.4202L86.44 89.1002L87.14 90.5002L86.16 91.4802L83.36 85.3202L84.48 84.2002L90.5 87.2802L89.52 88.1202ZM87 86.7202C85.74 86.0202 85.04 85.6002 84.9 85.6002C84.76 85.4602 84.62 85.4602 84.48 85.3202C84.62 85.6002 85.18 86.4402 85.88 87.8402L87 86.7202Z" fill="white"/>
<path d="M89.24 80.0004C88.96 80.4204 88.82 80.8404 88.96 81.2604C89.1 81.6804 89.38 82.1004 89.94 82.5204C91.06 83.3604 92.04 83.3604 92.6 82.5204C92.88 82.1004 93.16 81.6804 93.3 80.9804L94.28 81.6804C94.14 82.2404 93.86 82.8004 93.44 83.2204C92.88 83.9204 92.18 84.3404 91.48 84.4804C90.78 84.4804 89.94 84.2004 89.1 83.6404C88.54 83.2204 88.12 82.8004 87.98 82.2404C87.7 81.6804 87.56 81.2604 87.7 80.7004C87.84 80.1404 87.98 79.7204 88.26 79.1604C88.68 78.6004 89.1 78.3204 89.8 77.9004L90.36 78.8804C90.08 79.0204 89.94 79.1604 89.66 79.3004C89.38 79.4404 89.38 79.8604 89.24 80.0004Z" fill="white"/>
<path d="M95.82 72.8598C96.8 73.2798 97.36 73.9798 97.64 74.6798C97.92 75.3798 97.78 76.2198 97.36 77.0598C96.94 77.8998 96.38 78.4598 95.54 78.7398C94.84 79.0198 94 78.8798 93.02 78.3198C92.04 77.8998 91.48 77.1998 91.2 76.4998C90.92 75.7998 91.06 74.9598 91.48 74.1198C91.9 73.2798 92.46 72.7198 93.3 72.4398C94 72.1598 94.84 72.2998 95.82 72.8598ZM93.72 76.9198C94.42 77.1998 94.84 77.3398 95.4 77.3398C95.82 77.1998 96.24 76.9198 96.38 76.4998C96.8 75.5198 96.52 74.6798 95.12 74.1198C93.86 73.4198 93.02 73.6998 92.46 74.5398C92.18 74.9598 92.18 75.5198 92.46 75.9398C92.74 76.3598 93.02 76.6398 93.72 76.9198Z" fill="white"/>
<path d="M93.58 69.78L94.14 67.82C94.42 66.98 94.7 66.42 95.12 66C95.54 65.72 95.96 65.58 96.52 65.72C96.94 65.86 97.22 66 97.36 66.28C97.5 66.56 97.64 66.84 97.64 67.12C97.78 66.7 98.06 66.56 98.34 66.42C98.62 66.28 98.9 66.28 99.32 66.42C99.88 66.56 100.3 66.98 100.44 67.4C100.58 67.96 100.58 68.52 100.44 69.22L99.74 71.46L93.58 69.78ZM96.38 69.22L96.66 68.52C96.8 68.1 96.8 67.96 96.66 67.68C96.66 67.54 96.38 67.4 96.24 67.26C95.96 67.26 95.82 67.26 95.68 67.4C95.54 67.54 95.4 67.82 95.26 68.1L94.98 68.8L96.38 69.22ZM97.36 69.5L98.9 69.92L99.18 69.08C99.32 68.66 99.32 68.38 99.18 68.24C99.04 68.1 98.9 67.82 98.62 67.82C98.06 67.68 97.78 67.96 97.5 68.66L97.36 69.5Z" fill="white"/>
<path fill-rule="evenodd" clip-rule="evenodd" d="M57.04 32.8193C57.5813 32.8193 58.02 33.2581 58.02 33.7993V37.4393C58.02 37.9806 57.5813 38.4193 57.04 38.4193C56.4988 38.4193 56.06 37.9806 56.06 37.4393V33.7993C56.06 33.2581 56.4988 32.8193 57.04 32.8193Z" fill="white"/>
<path fill-rule="evenodd" clip-rule="evenodd" d="M57.04 68.5195C57.5813 68.5195 58.02 68.9583 58.02 69.4995V73.1395C58.02 73.6808 57.5813 74.1195 57.04 74.1195C56.4988 74.1195 56.06 73.6808 56.06 73.1395V69.4995C56.06 68.9583 56.4988 68.5195 57.04 68.5195Z" fill="white"/>
<path fill-rule="evenodd" clip-rule="evenodd" d="M47.9564 37.8844C48.4068 37.5842 49.0152 37.7059 49.3155 38.1562L49.8755 38.9962C50.1757 39.4466 50.054 40.055 49.6037 40.3552C49.1533 40.6555 48.5449 40.5338 48.2446 40.0834L47.6846 39.2434C47.3844 38.7931 47.5061 38.1846 47.9564 37.8844Z" fill="white"/>
<path fill-rule="evenodd" clip-rule="evenodd" d="M64.4764 66.5846C64.9268 66.2844 65.5352 66.4061 65.8355 66.8564L66.3955 67.6964C66.6957 68.1468 66.574 68.7552 66.1237 69.0554C65.6733 69.3557 65.0649 69.234 64.7646 68.7836L64.2046 67.9436C63.9044 67.4933 64.0261 66.8848 64.4764 66.5846Z" fill="white"/>
<path fill-rule="evenodd" clip-rule="evenodd" d="M41.3846 44.3164C41.6849 43.866 42.2933 43.7444 42.7436 44.0446L43.5836 44.6046C44.034 44.9048 44.1557 45.5132 43.8555 45.9636C43.5552 46.4139 42.9468 46.5356 42.4964 46.2354L41.6564 45.6754C41.2061 45.3752 41.0844 44.7667 41.3846 44.3164Z" fill="white"/>
<path fill-rule="evenodd" clip-rule="evenodd" d="M70.0235 61.083C70.2656 60.5989 70.8542 60.4026 71.3383 60.6447L72.1783 61.0647C72.6624 61.3067 72.8586 61.8954 72.6166 62.3795C72.3745 62.8636 71.7859 63.0598 71.3018 62.8178L70.4618 62.3978C69.9777 62.1557 69.7815 61.5671 70.0235 61.083Z" fill="white"/>
<path fill-rule="evenodd" clip-rule="evenodd" d="M72.16 53.3989C72.16 52.8577 72.5988 52.4189 73.14 52.4189H76.64C77.1813 52.4189 77.62 52.8577 77.62 53.3989C77.62 53.9402 77.1813 54.3789 76.64 54.3789H73.14C72.5988 54.3789 72.16 53.9402 72.16 53.3989Z" fill="white"/>
<path fill-rule="evenodd" clip-rule="evenodd" d="M36.46 53.3989C36.46 52.8577 36.8988 52.4189 37.44 52.4189H40.94C41.4813 52.4189 41.92 52.8577 41.92 53.3989C41.92 53.9402 41.4813 54.3789 40.94 54.3789H37.44C36.8988 54.3789 36.46 53.9402 36.46 53.3989Z" fill="white"/>
<path fill-rule="evenodd" clip-rule="evenodd" d="M72.5554 44.3164C72.8557 44.7667 72.734 45.3752 72.2836 45.6754L71.4436 46.2354C70.9933 46.5356 70.3848 46.4139 70.0846 45.9636C69.7844 45.5132 69.9061 44.9048 70.3564 44.6046L71.1964 44.0446C71.6468 43.7444 72.2552 43.866 72.5554 44.3164Z" fill="white"/>
<path fill-rule="evenodd" clip-rule="evenodd" d="M43.9166 61.082C44.1586 61.5661 43.9624 62.1547 43.4783 62.3968L42.6383 62.8168C42.1542 63.0588 41.5655 62.8626 41.3235 62.3785C41.0814 61.8944 41.2777 61.3058 41.7618 61.0637L42.6018 60.6437C43.0859 60.4017 43.6745 60.5979 43.9166 61.082Z" fill="white"/>
<path fill-rule="evenodd" clip-rule="evenodd" d="M66.1237 37.8834C66.574 38.1837 66.6957 38.7921 66.3955 39.2425L65.8355 40.0825C65.5352 40.5328 64.9268 40.6545 64.4764 40.3543C64.0261 40.054 63.9044 39.4456 64.2046 38.9952L64.7646 38.1552C65.0649 37.7049 65.6733 37.5832 66.1237 37.8834Z" fill="white"/>
<path fill-rule="evenodd" clip-rule="evenodd" d="M49.6037 66.5836C50.054 66.8839 50.1757 67.4923 49.8755 67.9427L49.3155 68.7827C49.0152 69.233 48.4068 69.3547 47.9564 69.0545C47.5061 68.7542 47.3844 68.1458 47.6846 67.6954L48.2446 66.8554C48.5449 66.4051 49.1533 66.2834 49.6037 66.5836Z" fill="white"/>
<path d="M53.54 56.9012H55.78V58.3012H53.54V63.2012H52V58.3012H45V57.3212L51.86 43.7412H53.54V56.9012ZM46.82 56.9012H52V46.2612L51.58 47.3812L46.82 56.9012Z" fill="white"/>
<path d="M66.2801 48.7809C66.2801 49.9009 66.0001 50.7409 65.5801 51.5809C65.1601 52.2809 64.46 52.8409 63.62 53.2609C64.6 53.6809 65.3001 54.2409 65.8601 55.0809C66.4201 55.9209 66.7001 56.9009 66.7001 58.0209C66.7001 59.8409 66.2801 61.1009 65.3001 62.0809C64.4601 63.0609 63.2001 63.4809 61.8001 63.4809C60.2601 63.4809 59.1401 63.0609 58.3001 62.0809C57.4601 61.1009 57.0401 59.8409 57.0401 58.0209C57.0401 56.9009 57.3201 55.9209 57.8801 55.0809C58.4401 54.2409 59.14 53.6809 60.12 53.2609C59.28 52.8409 58.7201 52.2809 58.1601 51.5809C57.7401 50.8809 57.4601 49.9009 57.4601 48.7809C57.4601 47.1009 57.88 45.8409 58.72 44.8609C59.56 44.0209 60.6801 43.4609 61.9401 43.4609C63.3401 43.4609 64.3201 43.8809 65.1601 44.8609C65.8601 45.8409 66.2801 47.1009 66.2801 48.7809ZM65.1601 58.0209C65.1601 56.7609 64.8801 55.7809 64.1801 55.0809C63.6201 54.3809 62.7801 53.9609 61.8001 53.9609C60.8201 53.9609 59.98 54.3809 59.42 55.0809C58.86 55.7809 58.5801 56.7609 58.5801 58.0209C58.5801 59.2809 58.86 60.2609 59.42 60.9609C59.98 61.6609 60.8201 61.9409 61.8001 61.9409C62.7801 61.9409 63.6201 61.6609 64.1801 60.9609C64.8801 60.2609 65.1601 59.2809 65.1601 58.0209ZM64.7401 48.7809C64.7401 47.6609 64.4601 46.6809 63.9001 45.9809C63.3401 45.2809 62.6401 44.8609 61.8001 44.8609C60.9601 44.8609 60.2601 45.1409 59.7001 45.8409C59.1401 46.5409 58.8601 47.5209 58.8601 48.6409C58.8601 49.7609 59.1401 50.7409 59.7001 51.4409C60.2601 52.1409 60.9601 52.4209 61.8001 52.4209C62.6401 52.4209 63.3401 52.1409 63.9001 51.4409C64.4601 50.7409 64.7401 49.9009 64.7401 48.7809Z" fill="white"/>
<path fill-rule="evenodd" clip-rule="evenodd" d="M57.04 33.9405C46.2926 33.9405 37.58 42.653 37.58 53.4005C37.58 64.1479 46.2926 72.8605 57.04 72.8605C67.7875 72.8605 76.5 64.1479 76.5 53.4005C76.5 42.653 67.7875 33.9405 57.04 33.9405ZM35.62 53.4005C35.62 41.5705 45.2101 31.9805 57.04 31.9805C68.87 31.9805 78.46 41.5705 78.46 53.4005C78.46 65.2304 68.87 74.8205 57.04 74.8205C45.2101 74.8205 35.62 65.2304 35.62 53.4005Z" fill="white"/>
<path fill-rule="evenodd" clip-rule="evenodd" d="M53.4114 22.0312C53.485 21.5531 53.8963 21.2002 54.38 21.2002H62.08C62.5591 21.2002 62.9679 21.5465 63.0467 22.0191L63.9176 27.2446C64.8817 27.4732 65.788 27.7683 66.6788 28.128L69.5748 24.508C69.8717 24.1369 70.3921 24.0323 70.8093 24.2599L72.356 25.1035L76.136 27.2035C76.1411 27.2064 76.1463 27.2093 76.1514 27.2123C76.1557 27.2148 76.16 27.2173 76.1642 27.2199L77.5642 28.0598C77.9767 28.3073 78.1486 28.8176 77.9699 29.2642L75.967 34.2714C76.6183 34.9522 77.2143 35.6425 77.7968 36.3835L82.4197 34.437C82.8834 34.2418 83.4195 34.4293 83.6604 34.8709L84.4967 36.4043L84.5004 36.4109L86.6004 40.1909L87.4404 41.7309C87.6654 42.1436 87.5659 42.6579 87.203 42.9567L82.9511 46.4583C83.2106 47.3549 83.4052 48.289 83.5368 49.1807L88.4054 49.911C88.8851 49.983 89.24 50.3951 89.24 50.8802V58.5802C89.24 59.0703 88.878 59.485 88.3924 59.5512L82.8965 60.3007C82.6753 61.1627 82.404 62.0171 82.129 62.8503L85.92 65.7853C86.3004 66.0798 86.4108 66.607 86.1804 67.0295L85.3404 68.5695L85.3367 68.5761L83.2404 72.3495L83.2367 72.3561L82.4004 73.8895C82.1642 74.3224 81.6432 74.5124 81.1838 74.3331L76.1136 72.3545C75.4956 73.0757 74.823 73.684 74.1108 74.2525L76.5273 78.8438C76.7767 79.3177 76.5995 79.9041 76.1293 80.1605L74.596 80.9969L74.5893 81.0005L70.816 83.0969L70.8093 83.1005L69.2693 83.9405C68.8556 84.1662 68.3399 84.0655 68.0416 83.7008L64.6797 79.5918C63.7597 79.8572 62.7904 80.0548 61.8152 80.1864L61.0886 84.9092C61.0151 85.3873 60.6037 85.7402 60.12 85.7402H52.42C51.941 85.7402 51.5321 85.3938 51.4534 84.9213L50.5825 79.6958C49.6174 79.4669 48.7101 79.1715 47.8184 78.8113L44.7829 82.5754C44.4854 82.9442 43.9667 83.0474 43.5508 82.8205L42.0108 81.9805L42.0041 81.9769L38.2308 79.8805L38.2241 79.8769L36.6908 79.0405C36.2578 78.8044 36.0678 78.2833 36.2471 77.8239L38.2571 72.6733C37.6002 71.9868 36.9996 71.2909 36.4124 70.5431L31.7799 72.3717C31.334 72.5477 30.8263 72.3754 30.5797 71.9644L29.7397 70.5644C29.7341 70.5551 29.7287 70.5456 29.7234 70.5361L27.6197 66.7495L26.7797 65.2095C26.5546 64.7968 26.6542 64.2825 27.017 63.9837L31.269 60.4821C31.0095 59.5855 30.8148 58.6514 30.6833 57.7596L25.8147 57.0293C25.3349 56.9574 24.98 56.5453 24.98 56.0602V48.5002C24.98 48.0184 25.3303 47.6081 25.8061 47.5324L31.3196 46.6552C31.5418 45.7869 31.8151 44.9262 32.0921 44.087L28.1567 41.0125C27.7788 40.7172 27.6701 40.1919 27.8997 39.7709L28.7433 38.2242L30.8416 34.4475L31.6797 32.9109C31.9206 32.4693 32.4567 32.2818 32.9203 32.477L37.5918 34.4439C38.2023 33.774 38.8812 33.1096 39.629 32.4945L37.9235 27.987C37.7503 27.5294 37.9412 27.0142 38.3708 26.7799L39.9074 25.9417L43.6907 23.8398L45.2308 22.9999C45.6444 22.7742 46.1601 22.8749 46.4585 23.2396L49.8204 27.3486C50.7404 27.0831 51.7096 26.8856 52.6848 26.754L53.4114 22.0312ZM55.2208 23.1602L54.5086 27.7892C54.4407 28.231 54.0823 28.5709 53.6376 28.6153C52.2984 28.7492 50.971 29.0162 49.7899 29.4099C49.4042 29.5385 48.9791 29.4155 48.7216 29.1008L45.456 25.1096L44.6326 25.5587L40.8493 27.6606L40.0587 28.0918L41.7166 32.4734C41.871 32.8814 41.7371 33.3424 41.388 33.6042C40.3394 34.3907 39.4107 35.317 38.6041 36.258C38.3269 36.5814 37.8724 36.6887 37.4797 36.5234L32.9762 34.6272L32.5567 35.3961L30.4585 39.1729L30.0184 39.9797L33.8434 42.9679C34.1702 43.2233 34.3009 43.6567 34.1697 44.0501C33.7467 45.3192 33.3438 46.5307 33.0767 47.7328C32.9895 48.1254 32.6712 48.4248 32.274 48.488L26.94 49.3366V55.2162L31.7054 55.931C32.1449 55.997 32.485 56.3503 32.534 56.792C32.6677 57.9952 32.935 59.3262 33.3297 60.5103C33.458 60.895 33.336 61.3189 33.023 61.5767L28.8882 64.9819L29.3367 65.8043L29.3404 65.8109L31.4288 69.57L31.833 70.2436L36.3802 68.4486C36.7908 68.2865 37.2592 68.419 37.524 68.7722C38.3386 69.8583 39.1485 70.8027 40.093 71.7472C40.3681 72.0223 40.4544 72.4341 40.313 72.7965L38.3866 77.7329L39.176 78.1635L42.9493 80.2598L42.956 80.2635L43.7709 80.708L46.7572 77.005C47.0359 76.6593 47.5123 76.5443 47.918 76.7246C49.1192 77.2585 50.3103 77.6548 51.6322 77.9192C52.0315 77.9991 52.3398 78.3175 52.4067 78.7191L53.2502 83.7802H59.2793L59.9914 79.1512C60.0594 78.7094 60.4177 78.3695 60.8625 78.325C62.2016 78.1911 63.5291 77.9242 64.7101 77.5305C65.0959 77.4019 65.521 77.5249 65.7785 77.8396L69.044 81.8308L69.8641 81.3835L69.8708 81.3798L73.6441 79.2835L73.6508 79.2799L74.3431 78.9022L71.9928 74.4366C71.7686 74.0107 71.887 73.485 72.272 73.1962C73.3619 72.3788 74.2573 71.6039 75.016 70.5922C75.2801 70.2401 75.7464 70.1073 76.1563 70.2672L81.0927 72.1937L81.5197 71.4109L81.5234 71.4043L83.6197 67.6309L83.6234 67.6243L84.0599 66.8239L80.3801 63.9751C80.0509 63.7202 79.9187 63.2852 80.0503 62.8903C80.4733 61.6212 80.8762 60.4097 81.1434 59.2076C81.2323 58.8072 81.5612 58.5046 81.9676 58.4492L87.28 57.7248V51.7242L82.5147 51.0093C82.0752 50.9434 81.7351 50.5901 81.686 50.1484C81.5523 48.9452 81.285 47.6142 80.8903 46.4301C80.7621 46.0454 80.884 45.6215 81.197 45.3637L85.3319 41.9585L84.8834 41.1361L84.8797 41.1295L82.7834 37.3561L82.7797 37.3495L82.3639 36.5872L77.8603 38.4834C77.4459 38.6579 76.9658 38.5279 76.696 38.1682C75.8815 37.0821 75.0716 36.1377 74.1271 35.1932C73.8499 34.9159 73.7645 34.5002 73.9101 34.1362L75.8402 29.3111L75.1699 28.909L71.4108 26.8205L71.4041 26.8169L70.592 26.374L67.7453 29.9324C67.467 30.2803 66.9891 30.3967 66.582 30.2157C65.3808 29.6819 64.1897 29.2855 62.8678 29.0212C62.4686 28.9413 62.1603 28.6229 62.0934 28.2213L61.2499 23.1602H55.2208Z" fill="white"/>
<defs>
<linearGradient id="paint0_linear" x1="5.10243" y1="56.5072" x2="107.913" y2="56.5072" gradientUnits="userSpaceOnUse">
<stop/>
<stop offset="0.2356" stop-color="#070D10"/>
<stop offset="0.4558" stop-color="#17272E"/>
<stop offset="0.6698" stop-color="#223E4A"/>
<stop offset="0.8788" stop-color="#2B5262"/>
<stop offset="0.9835" stop-color="#2E5C6F"/>
</linearGradient>
</defs>
</svg>
