<svg width="112" height="112" viewBox="0 0 112 112" fill="none" xmlns="http://www.w3.org/2000/svg">
<path d="M56.0001 107.38C84.3765 107.38 107.38 84.3765 107.38 56.0001C107.38 27.6237 84.3765 4.62012 56.0001 4.62012C27.6237 4.62012 4.62012 27.6237 4.62012 56.0001C4.62012 84.3765 27.6237 107.38 56.0001 107.38Z" fill="#7D8A8E"/>
<path d="M55.9999 112C53.3399 112 50.5399 111.86 47.8799 111.44L48.1599 109.34C50.6799 109.76 53.3399 109.9 55.8599 109.9C85.5399 109.9 109.76 85.6799 109.76 55.9999C109.76 30.9399 91.9799 8.8199 67.6199 3.3599L68.1799 1.3999C93.6599 6.9999 112 29.9599 112 55.9999C112 86.9399 86.9399 112 55.9999 112Z" fill="#7D8A8E"/>
<path d="M43.96 110.74C18.48 105.14 0 82.18 0 56C0 25.06 25.06 0 56 0C58.8 0 61.6 0.14 64.26 0.56L63.98 2.66C61.32 2.24 58.66 2.1 56 2.1C26.32 2.1 2.1 26.32 2.1 56C2.1 81.2 19.88 103.32 44.38 108.64L43.96 110.74Z" fill="black"/>
<path d="M10.3599 55.5799L10.4999 54.1799L15.6799 54.4599L15.8199 52.0799L10.4999 51.7999L10.6399 50.3999L16.9399 50.8199L16.6599 55.9999L10.3599 55.5799Z" fill="white"/>
<path d="M14.2799 63.98C13.2999 64.12 12.4599 63.98 11.7599 63.42C11.0599 62.86 10.7799 62.3 10.6399 61.32C10.4999 60.34 10.7799 59.5 11.1999 58.94C11.7599 58.38 12.4599 57.96 13.5799 57.82C14.6999 57.68 15.5399 57.82 16.0999 58.38C16.6599 58.8 17.0799 59.5 17.2199 60.48C17.3599 61.46 17.0799 62.3 16.6599 62.86C16.0999 63.56 15.2599 63.98 14.2799 63.98ZM13.7199 59.36C13.0199 59.5 12.4599 59.64 12.1799 59.92C11.8999 60.2 11.7599 60.62 11.7599 61.18C11.8999 62.3 12.5999 62.72 14.1399 62.58C15.5399 62.44 16.2399 61.74 16.0999 60.76C16.0999 60.2 15.8199 59.78 15.3999 59.64C14.9799 59.36 14.4199 59.36 13.7199 59.36Z" fill="white"/>
<path d="M12.46 66.2197L12.6 66.6397C13.58 66.7797 14.42 66.9197 15.26 66.7797C16.1 66.7797 17.08 66.6397 18.06 66.4997L19.18 69.9997L14.14 71.5397L14.42 72.3797L11.62 73.2197L11.2 72.0997L13.02 71.5397L11.76 67.7597L9.94002 68.3197L9.52002 67.0597L12.46 66.2197ZM17.36 67.8997C16.66 68.0397 15.96 68.0397 15.26 68.0397C14.42 68.0397 13.72 68.0397 13.16 67.8997L13.86 70.2797L17.78 69.0197L17.36 67.8997Z" fill="white"/>
<path d="M15.8201 77.5596L19.4601 73.7796C18.6201 74.3396 18.0601 74.6196 17.7801 74.8996L15.1201 76.2996L14.5601 75.1796L20.1601 72.0996L21.0001 73.6396L17.5001 77.2796L22.5401 76.2996L23.3801 77.8396L17.7801 80.9196L17.2201 79.7996L19.8801 78.2596C20.0201 78.2596 20.1601 78.1196 20.3001 77.9796C20.4401 77.8396 20.8601 77.6996 21.5601 77.2796L16.3801 78.2596L15.8201 77.5596Z" fill="white"/>
<path d="M21.9801 86.5197L19.6001 83.7197L24.5001 79.6597L26.8801 82.4597L26.0401 83.1597L24.5001 81.3397L23.3801 82.1797L24.7801 83.8597L23.9401 84.5597L22.5401 82.8797L21.4201 83.9997L22.9601 85.8197L21.9801 86.5197Z" fill="white"/>
<path d="M27.8599 91.9799L26.8799 91.1399L28.6999 89.0399L26.7399 87.3599L24.9199 89.4599L23.9399 88.6199L28.1399 83.8599L29.1199 84.6999L27.4399 86.5199L29.3999 88.1999L31.0799 86.3799L32.0599 87.2199L27.8599 91.9799Z" fill="white"/>
<path d="M35 96.6L33.88 95.9L35.28 93.52L33.04 92.26L31.64 94.64L30.52 93.94L33.74 88.48L34.86 89.18L33.6 91.28L35.84 92.54L37.1 90.44L38.22 91.14L35 96.6Z" fill="white"/>
<path d="M42.5598 97.58C42.2798 98.14 41.9998 98.56 41.4398 98.84C40.8798 98.98 40.1798 98.98 39.4798 98.7L37.7998 98L39.8998 91.98L41.1598 92.4L40.3198 94.78L40.7398 94.92C41.5798 95.2 41.9998 95.62 42.4198 96.04C42.8398 96.46 42.8398 97.02 42.5598 97.58ZM39.4798 97.44L39.7598 97.58C40.1798 97.72 40.4598 97.72 40.7398 97.72C41.0198 97.58 41.1598 97.44 41.2998 97.16C41.4398 96.88 41.4398 96.6 41.1598 96.46C41.0198 96.32 40.7398 96.04 40.1798 95.9L39.8998 95.76L39.4798 97.44ZM43.9598 100.1L42.6998 99.68L44.7998 93.66L46.0598 94.08L43.9598 100.1Z" fill="white"/>
<path d="M48.0199 94.4996L49.2799 94.6396L48.8599 97.7196L48.7199 98.5596L48.5799 99.5395L52.0799 95.0596L53.6199 95.3396L52.7799 101.64L51.5199 101.5L51.9399 98.4196C51.9399 97.9996 52.0799 97.4396 52.2199 96.5996L48.5799 101.08L46.8999 100.8L48.0199 94.4996ZM53.1999 93.0996C53.0599 93.6596 52.7799 93.9396 52.4999 94.2196C52.0799 94.3596 51.6599 94.4996 50.9599 94.3596C50.2599 94.2196 49.8399 94.0796 49.5599 93.7996C49.2799 93.5196 49.1399 93.0996 49.1399 92.5396L50.2599 92.6795C50.2599 92.9595 50.2599 93.2395 50.3999 93.3795C50.5399 93.5195 50.6799 93.6596 51.0999 93.6596C51.3799 93.6596 51.6599 93.6596 51.7999 93.5196C51.9399 93.3796 52.0799 93.2396 52.0799 92.9596L53.1999 93.0996Z" fill="white"/>
<path d="M58.6602 95.3396L59.9202 95.1997L60.3402 98.2796L60.4802 99.1197L60.6202 100.1L62.8602 94.9197L64.4002 94.6396L65.2401 100.94L63.9802 101.08L63.5602 97.9997C63.5602 97.5797 63.4202 97.0196 63.4202 96.1796L61.1802 101.5L59.5002 101.78L58.6602 95.3396Z" fill="white"/>
<path d="M73.2202 98.4199L71.9602 98.8399L71.1202 96.1799L68.7402 97.0199L69.5802 99.6799L68.3202 100.1L66.2202 94.0799L67.4802 93.6599L68.3202 96.0399L70.7002 95.1999L69.8602 92.8199L71.1202 92.3999L73.2202 98.4199Z" fill="white"/>
<path d="M75.8803 90.9998C75.4603 91.2798 75.1803 91.5598 75.1803 92.1198C75.1803 92.5398 75.3203 93.0998 75.6003 93.6598C76.3003 94.9198 77.1403 95.3398 77.9803 94.7798C78.4003 94.4998 78.8203 94.2198 79.2403 93.6598L79.8003 94.6398C79.3803 95.0598 78.9603 95.4798 78.4003 95.7598C77.5603 96.1798 76.8603 96.3198 76.1603 96.0398C75.4603 95.7598 74.9003 95.1998 74.3403 94.2198C74.0603 93.6598 73.7803 93.0998 73.7803 92.5398C73.7803 91.9798 73.9203 91.4198 74.2003 90.9998C74.4803 90.5798 74.9003 90.1598 75.4603 89.8798C76.0203 89.5998 76.5803 89.4598 77.2803 89.3198L77.4203 90.4398C77.1403 90.4398 76.8603 90.4398 76.5803 90.5798C76.3003 90.8598 76.1603 90.9998 75.8803 90.9998Z" fill="white"/>
<path d="M84.1402 91.98L83.0202 92.82L79.8002 88.62L78.4002 89.74L77.7002 88.9L81.4802 85.96L82.1802 86.8L80.7802 87.92L84.1402 91.98Z" fill="white"/>
<path d="M87.2202 83.0199C87.7802 83.4399 87.9202 83.9999 87.9202 84.5599C87.9202 85.1199 87.6402 85.6799 87.0802 86.2399L86.6602 86.6599L88.3402 88.1999L87.3602 89.1799L82.7402 84.6999L84.1402 83.2999C84.7002 82.7399 85.2602 82.4599 85.6802 82.3199C86.1002 82.1799 86.8002 82.5999 87.2202 83.0199ZM85.8202 85.9599L86.1002 85.6799C86.3802 85.3999 86.5202 85.1199 86.5202 84.8399C86.5202 84.5599 86.3802 84.2799 86.2402 84.1399C85.9602 83.8599 85.8202 83.8599 85.5402 83.8599C85.2602 83.8599 85.1202 83.9999 84.8402 84.2799L84.4202 84.6999L85.8202 85.9599Z" fill="white"/>
<path d="M89.7402 76.1597L92.2602 80.3597C92.5402 80.9197 92.8202 81.3397 92.8202 81.6197C92.9602 81.8997 92.9602 82.3197 92.8202 82.5997C92.6802 82.8797 92.5402 83.2997 92.4002 83.5797C92.2602 83.8597 91.9802 84.1397 91.7002 84.2797L90.7202 83.5797C91.0002 83.4397 91.1402 83.1597 91.4202 82.8797C91.5602 82.7397 91.5602 82.4597 91.5602 82.3197C91.5602 82.1797 91.4202 81.8997 91.2802 81.6197L86.2402 80.7797L87.0802 79.6597L90.8602 80.3597H91.0002L89.0402 77.4197L89.7402 76.1597Z" fill="white"/>
<path d="M97.2998 75.3195L92.1198 74.6195C93.0998 75.0395 93.6598 75.1795 94.0798 75.3195L96.7398 76.5795L96.1798 77.6995L90.2998 75.0395L90.9998 73.3595L96.0398 73.9195L92.3998 70.6995L93.0998 69.0195L98.9798 71.6795L98.5598 72.7995L95.7598 71.5395C95.6198 71.5395 95.4798 71.3995 95.3398 71.3995C95.1998 71.3995 94.7798 71.1195 94.0798 70.6995L97.9998 74.1995L97.2998 75.3195Z" fill="white"/>
<path d="M100.8 64.9596L99.9598 68.5996L93.7998 67.0596L94.6398 63.5596L95.7598 63.8396L95.1998 66.0796L96.5998 66.3596L97.1598 64.2596L98.2798 64.5396L97.7198 66.6396L99.2598 67.0596L99.8198 64.8196L100.8 64.9596Z" fill="white"/>
<path d="M101.64 57.1196L101.5 58.5196L98.6999 58.2396L98.5599 60.7596L101.36 61.0396L101.22 62.4396L94.9199 61.8796L95.0599 60.4796L97.5799 60.6196L97.7199 58.0996L95.1999 57.9596L95.3399 56.5596L101.64 57.1196Z" fill="white"/>
<path d="M101.5 51.5198L101.64 52.9198L96.4601 53.3398L96.6001 55.0198L95.4801 55.1598L95.0601 50.3998L96.1801 50.2598L96.3201 51.9398L101.5 51.5198Z" fill="white"/>
<path d="M63.6999 81.4802H43.5399C41.5799 81.4802 39.8999 79.8002 39.8999 77.8402V71.6802C39.8999 71.1202 40.3199 70.7002 40.8799 70.7002H43.5399C44.0999 70.7002 44.5199 71.1202 44.5199 71.6802C44.5199 72.2402 44.0999 72.8002 43.5399 72.8002H41.9999V77.9802C41.9999 78.8202 42.6999 79.6602 43.6799 79.6602H63.6999C64.5399 79.6602 65.3799 78.9602 65.3799 77.9802V72.8002H49.6999C49.1399 72.8002 48.7199 72.3802 48.7199 71.8202C48.7199 71.2602 49.1399 70.8402 49.6999 70.8402H66.2199C66.7799 70.8402 67.1999 71.2602 67.1999 71.8202V77.9802C67.1999 79.8002 65.6599 81.4802 63.6999 81.4802Z" fill="white"/>
<path d="M74.9 37.94C74.48 37.94 74.06 37.66 73.92 37.1C73.78 36.54 74.2 36.12 74.76 35.98C76.3 35.7 77.42 35 77.84 33.88L77.28 30.94C76.3 29.96 74.62 29.82 73.36 29.96C72.8 30.1 72.38 29.68 72.24 29.12C72.1 28.56 72.52 28.14 73.08 28C75.04 27.72 77.7 28 79.1 29.82C79.24 29.96 79.24 30.1 79.24 30.24L79.8 33.6C79.8 33.74 79.8 33.88 79.8 34.02C79.24 35.98 77.56 37.24 75.18 37.66C75.04 37.94 75.04 37.94 74.9 37.94Z" fill="white"/>
<path d="M81.8999 32.6199C81.4799 32.6199 81.0599 32.3399 80.9199 31.7799C80.9199 31.3599 81.1999 30.7999 81.7599 30.7999L92.2599 29.1199C92.8199 28.9799 93.2399 29.3999 93.3799 29.9599C93.5199 30.5199 93.0999 30.9399 92.5399 31.0799L82.0399 32.7599C82.0399 32.6199 81.8999 32.6199 81.8999 32.6199Z" fill="white"/>
<path d="M66.2201 72.8001C65.6601 72.8001 65.2401 72.3801 65.2401 71.8201V70.4201C65.2401 69.7201 64.6801 69.0201 63.9801 68.8801L55.5801 66.7801C55.3001 66.7801 55.1601 66.6401 55.0201 66.3601C53.6201 64.5401 54.1801 62.4401 54.7401 60.2001C55.4401 57.6801 56.1401 54.7401 54.8801 51.3801C54.7401 50.9601 54.8801 50.6801 55.1601 50.4001L56.5601 49.0001V44.2401C56.5601 43.8201 56.9801 43.4001 57.4001 43.2601L63.5601 42.4201C65.2401 42.1401 68.4601 40.4601 70.0001 39.4801L68.1801 28.1401C66.6401 28.0001 63.1401 27.5801 61.3201 27.8601L40.0401 31.3601C39.7601 31.3601 39.6201 31.5001 39.6201 31.6401C39.4801 31.7801 39.4801 32.0601 39.4801 32.3401L41.4401 43.8201L45.2201 47.8801C45.5001 48.1601 45.5001 48.4401 45.5001 48.7201C43.8201 56.2801 45.5001 65.6601 45.5001 65.8001C45.6401 66.2201 45.3601 66.6401 44.9401 66.9201L42.8401 67.9001C42.2801 68.1801 42.0001 68.7401 42.0001 69.3001V72.1001C42.0001 72.6601 41.5801 73.0801 41.0201 73.0801C40.4601 73.0801 40.0401 72.6601 40.0401 72.1001V69.3001C40.0401 67.9001 40.7401 66.6401 42.0001 66.0801L43.4001 65.3801C42.9801 63.0001 42.1401 55.4401 43.4001 48.8601L39.7601 44.9401C39.6201 44.8001 39.4801 44.6601 39.4801 44.3801L37.3801 32.6201C37.2401 31.9201 37.3801 31.0801 37.8001 30.5201C38.2201 29.9601 38.7801 29.5401 39.4801 29.4001L60.7601 25.9001C63.4201 25.4801 68.7401 26.1801 69.0201 26.3201C69.4401 26.3201 69.7201 26.7401 69.8601 27.1601L71.9601 39.7601C71.9601 40.1801 71.8201 40.6001 71.5401 40.7401C71.4001 40.8801 66.5001 43.8201 63.7001 44.2401L58.5201 44.8001V49.1401C58.5201 49.4201 58.3801 49.7001 58.2401 49.8401L56.9801 51.1001C58.1001 54.8801 57.4001 57.9601 56.7001 60.4801C56.1401 62.5801 55.8601 63.8401 56.4201 64.8201L64.5401 66.7801C66.0801 67.2001 67.2001 68.6001 67.2001 70.2801V71.6801C67.2001 72.2401 66.7801 72.8001 66.2201 72.8001Z" fill="white"/>
<path d="M64.5401 50.1202H61.0401C60.4801 50.1202 60.0601 49.7002 60.0601 49.1402C60.0601 48.5802 60.4801 48.1602 61.0401 48.1602H63.1401C62.7201 46.6202 62.7201 44.2402 64.6801 42.2802C65.1001 41.8602 65.6601 42.0002 66.0801 42.2802C66.5001 42.7002 66.3601 43.2602 66.0801 43.6802C63.9801 45.5002 65.3801 48.5802 65.3801 48.5802C65.5201 48.8602 65.5201 49.2802 65.3801 49.5602C65.1001 49.9802 64.8201 50.1202 64.5401 50.1202Z" fill="white"/>
<path d="M39.2 37.1001C38.78 37.1001 38.36 36.8201 38.22 36.2601C38.08 35.7001 38.5 35.2801 39.06 35.1401L44.24 34.3001C44.8 34.1601 45.22 34.5801 45.36 35.1401C45.5 35.7001 45.08 36.1201 44.52 36.2601L39.34 37.1001C39.34 37.1001 39.34 37.1001 39.2 37.1001Z" fill="white"/>
<path d="M40.18 41.4399C39.76 41.4399 39.34 41.1599 39.2 40.5999C39.06 40.0399 39.48 39.6199 40.04 39.4799L45.22 38.6399C45.78 38.4999 46.2 38.9199 46.34 39.4799C46.48 40.0399 46.06 40.4599 45.5 40.5999L40.32 41.4399C40.18 41.4399 40.18 41.4399 40.18 41.4399Z" fill="white"/>
<path d="M85.3998 51.1002L88.3398 50.9602C86.9398 45.7802 84.2798 41.1602 80.9198 37.6602C82.1798 42.2802 82.0398 47.0402 80.9198 51.1002L83.8598 50.9602V52.0802C83.8598 53.3402 83.7198 54.6002 83.5798 55.8602C83.1598 58.3802 82.4598 60.9002 81.4798 63.2802C79.3798 67.9002 76.0198 72.1002 71.8198 75.0402L72.6598 76.3002C77.1398 73.2202 80.6398 68.8802 82.8798 63.9802C83.9998 61.4602 84.6998 58.9402 85.1198 56.1402C85.2598 54.7402 85.3998 53.4802 85.3998 52.0802V51.1002Z" fill="white"/>
<path d="M28.28 62.2999L25.48 63.1399C28.28 67.7599 32.06 71.5399 36.26 73.9199C33.88 69.7199 32.62 65.2399 32.62 60.8999L29.82 61.7399L29.54 60.7599C29.26 59.6399 28.98 58.3799 28.84 57.1199C28.56 54.7399 28.56 52.2199 28.84 49.8399C29.4 44.9399 31.36 40.3199 34.3 36.3999L33.04 35.4199C29.96 39.4799 27.86 44.3799 27.3 49.5599C27.02 52.0799 27.02 54.7399 27.3 57.2599C27.44 58.5199 27.72 59.7799 28 61.0399L28.28 62.2999Z" fill="white"/>
</svg>
