<svg width="112" height="112" viewBox="0 0 112 112" fill="none" xmlns="http://www.w3.org/2000/svg">
<path d="M56.0001 107.38C84.3765 107.38 107.38 84.3765 107.38 56.0001C107.38 27.6237 84.3765 4.62012 56.0001 4.62012C27.6237 4.62012 4.62012 27.6237 4.62012 56.0001C4.62012 84.3765 27.6237 107.38 56.0001 107.38Z" fill="#7D8A8E"/>
<path d="M55.9999 112C53.3399 112 50.5399 111.86 47.8799 111.44L48.1599 109.34C50.6799 109.76 53.3399 109.9 55.8599 109.9C85.5399 109.9 109.76 85.6799 109.76 55.9999C109.76 30.9399 91.9799 8.8199 67.6199 3.3599L68.1799 1.3999C93.6599 6.9999 112 29.9599 112 55.9999C112 86.9399 86.9399 112 55.9999 112Z" fill="#7D8A8E"/>
<path d="M43.96 110.74C18.48 105.14 0 82.18 0 56C0 25.06 25.06 0 56 0C58.8 0 61.6 0.14 64.26 0.56L63.98 2.66C61.32 2.24 58.66 2.1 56 2.1C26.32 2.1 2.1 26.32 2.1 56C2.1 81.2 19.88 103.32 44.38 108.64L43.96 110.74Z" fill="black"/>
<path d="M68.0395 30.5203C67.4795 30.5203 67.0595 30.1003 67.0595 29.5403C67.0595 24.7803 63.1395 21.2803 57.8195 21.2803H54.1795C48.8595 21.2803 44.9395 24.7803 44.9395 29.5403C44.9395 30.1003 44.5195 30.5203 43.9595 30.5203C43.3995 30.5203 42.9795 30.1003 42.9795 29.5403C42.9795 23.6603 47.7395 19.3203 54.1795 19.3203H57.8195C64.2595 19.3203 69.0195 23.6603 69.0195 29.5403C69.0195 29.9603 68.5995 30.5203 68.0395 30.5203Z" fill="white"/>
<path d="M66.2196 37.3802C65.7996 37.3802 65.5196 37.3802 65.0996 37.2402C63.2796 36.5402 59.4996 35.2802 55.8596 35.2802C51.6596 35.2802 48.2996 36.5402 46.7596 37.2402C45.3596 37.8002 43.8196 37.2402 43.1196 35.9802L42.1396 33.6002C41.8596 33.1802 42.1396 32.4802 42.5596 32.3402C42.9796 32.0602 43.6796 32.3402 43.8196 32.7602L44.7996 34.8602C44.9396 35.2802 45.4996 35.4202 45.9196 35.2802C48.1596 34.3002 51.5196 33.1802 55.8596 33.1802C59.7796 33.1802 63.8396 34.5802 65.7996 35.2802C66.2196 35.4202 66.6396 35.2802 66.9196 34.8602L68.0396 32.7602C68.3196 32.3402 68.8796 32.0602 69.2996 32.3402C69.7196 32.6202 69.9996 33.1802 69.7196 33.6002L68.5996 35.7002C68.3196 36.8202 67.3396 37.3802 66.2196 37.3802Z" fill="white"/>
<path d="M63.4194 31.3604H63.2794C61.5994 31.0804 57.1194 30.3804 55.9994 30.3804C54.8794 30.3804 50.3994 31.0804 48.7194 31.3604C48.1594 31.5004 47.7394 31.0804 47.5994 30.5204C47.4594 29.9604 47.8794 29.5404 48.4394 29.4004C48.9994 29.2604 54.5994 28.4204 55.9994 28.4204C57.3994 28.4204 62.9994 29.2604 63.5594 29.4004C64.1194 29.5404 64.3994 29.9604 64.3994 30.5204C64.2594 31.0804 63.8394 31.3604 63.4194 31.3604Z" fill="white"/>
<path d="M55.9995 53.6203C50.5395 53.6203 45.9195 49.9803 44.6595 44.6603C44.0995 42.5603 43.9595 39.9003 43.9595 39.7603C43.9595 39.2003 44.3795 38.7803 44.9395 38.7803C45.4995 38.7803 45.9195 39.2003 45.9195 39.7603C45.9195 39.7603 46.0595 42.4203 46.6195 44.3803C47.5995 48.7203 51.5195 51.8003 56.1395 51.8003C60.6195 51.8003 64.5395 48.7203 65.6595 44.3803C66.0795 42.4203 66.3595 39.7603 66.3595 39.7603C66.3595 39.2003 66.9195 38.7803 67.3395 38.7803C67.8995 38.7803 68.3195 39.3403 68.3195 39.7603C68.3195 39.9003 68.1795 42.5603 67.6195 44.6603C66.0795 49.9803 61.4595 53.6203 55.9995 53.6203Z" fill="white"/>
<path d="M63.4196 57.2599C62.9996 57.2599 62.7196 57.1199 62.5796 56.6999C61.5996 54.5999 62.4396 50.1199 62.4396 49.5599C62.5796 48.9999 62.9996 48.7199 63.5596 48.8599C64.1196 48.9999 64.3996 49.4199 64.2596 49.9799C63.9796 51.6599 63.5596 54.7399 64.1196 55.8599C64.3996 56.2799 64.1196 56.9799 63.6996 57.1199C63.6996 57.2599 63.5596 57.2599 63.4196 57.2599Z" fill="white"/>
<path d="M48.5797 57.2601C48.4397 57.2601 48.2997 57.2601 48.1597 57.1201C47.7397 56.8401 47.4597 56.2801 47.7397 55.8601C48.8597 53.4801 47.7397 50.1201 47.7397 50.1201C47.5997 49.5601 47.8797 49.0001 48.2997 48.8601C48.8597 48.7201 49.4197 49.0001 49.5597 49.4201C49.5597 49.5601 50.9597 53.6201 49.5597 56.7001C49.2797 57.1201 48.9997 57.2601 48.5797 57.2601Z" fill="white"/>
<path d="M72.6597 59.2203C72.5197 59.2203 72.3797 59.2203 72.2397 59.2203L62.9997 55.4403C62.4397 55.3003 62.2997 54.6003 62.4397 54.1803C62.5797 53.6203 63.2797 53.4803 63.6997 53.6203L72.9397 57.2603C73.4997 57.4003 73.6397 58.1003 73.4997 58.5203C73.3597 58.9403 73.0797 59.2203 72.6597 59.2203Z" fill="white"/>
<path d="M39.3397 59.22C38.9197 59.22 38.6397 58.94 38.4997 58.66C38.3597 58.1 38.4997 57.54 39.0597 57.4L48.2997 53.76C48.8597 53.62 49.4197 53.76 49.5597 54.32C49.6997 54.88 49.5597 55.44 48.9997 55.58L39.7597 59.22C39.6197 59.08 39.4797 59.22 39.3397 59.22Z" fill="white"/>
<path d="M55.9996 61.0403C51.5196 61.0403 48.8596 59.5003 46.7596 55.8603C46.4796 55.4403 46.6196 54.7403 47.1796 54.4603C47.5996 54.1803 48.2996 54.3203 48.5796 54.8803C50.3996 57.9603 52.3596 59.0803 55.9996 59.0803C59.7796 59.0803 61.7396 57.9603 63.4196 54.8803C63.6996 54.4603 64.2596 54.3203 64.8196 54.4603C65.2396 54.7403 65.3796 55.3003 65.2396 55.8603C63.1396 59.5003 60.4796 61.0403 55.9996 61.0403Z" fill="white"/>
<path d="M69.02 66.6407H42.98C42.42 66.6407 42 66.2207 42 65.6607C42 65.1007 42.42 64.6807 42.98 64.6807H68.88C69.44 64.6807 69.86 65.1007 69.86 65.6607C69.86 66.2207 69.58 66.6407 69.02 66.6407Z" fill="white"/>
<path d="M69.02 73.9204H42.98C42.42 73.9204 42 73.5004 42 72.9404C42 72.3804 42.42 71.9604 42.98 71.9604H68.88C69.44 71.9604 69.86 72.3804 69.86 72.9404C69.86 73.5004 69.58 73.9204 69.02 73.9204Z" fill="white"/>
<path d="M34.7197 78.6805C30.9397 78.6805 27.4397 76.4405 26.3197 73.3605C26.1797 73.0805 26.3197 72.8005 26.4597 72.5205C26.5997 72.2405 26.8797 72.1005 27.2997 72.1005H33.3197L34.5797 70.8405V67.9005L33.3197 66.6405H27.2997C27.0197 66.6405 26.5997 66.5005 26.4597 66.2205C26.3197 65.9405 26.3197 65.5205 26.4597 65.2405C28.1397 62.1605 31.3597 60.0605 34.7197 60.0605C38.6397 60.0605 42.1397 62.5805 43.5397 66.2205C43.6797 66.7805 43.3997 67.3405 42.9797 67.4805C42.4197 67.6205 41.8597 67.3405 41.7197 66.9205C40.7397 63.9805 37.9397 62.0205 34.7197 62.0205C32.6197 62.0205 30.5197 63.0005 29.1197 64.6805H33.7397C34.0197 64.6805 34.2997 64.8205 34.4397 64.9605L36.2597 66.7805C36.3997 66.9205 36.5397 67.2005 36.5397 67.4805V71.1205C36.5397 71.4005 36.3997 71.6805 36.2597 71.8205L34.4397 73.6405C34.2997 73.7805 34.0197 73.9205 33.7397 73.9205H28.8397C29.9597 75.4605 32.1997 76.5805 34.5797 76.5805C37.6597 76.5805 40.4597 74.6205 41.5797 71.6805C41.7197 71.1205 42.2797 70.8405 42.8397 71.1205C43.3997 71.2605 43.6797 71.8205 43.3997 72.3805C42.1397 76.1605 38.6397 78.6805 34.7197 78.6805Z" fill="white"/>
<path d="M77.2799 78.6807C73.3599 78.6807 69.8599 76.1607 68.4599 72.5207C68.3199 71.9607 68.5999 71.4007 69.0199 71.2607C69.5799 71.1207 70.1399 71.4007 70.2799 71.8207C71.2599 74.7607 74.0599 76.7207 77.2799 76.7207C79.6599 76.7207 81.8999 75.6007 83.0199 74.0607H79.0999C78.8199 74.0607 78.5399 73.9207 78.3999 73.7807L76.5799 71.9607C76.4399 71.8207 76.2999 71.5407 76.2999 71.2607V67.6207C76.2999 67.3407 76.4399 67.0607 76.5799 66.9207L78.3999 65.1007C78.5399 64.9607 78.8199 64.8207 79.0999 64.8207H82.8799C81.4799 63.1407 79.3799 62.1607 77.2799 62.1607C74.1999 62.1607 71.3999 64.1207 70.2799 67.0607C70.1399 67.6207 69.5799 67.9007 69.0199 67.6207C68.4599 67.4807 68.1799 66.9207 68.4599 66.3607C69.7199 62.5807 73.3599 60.2007 77.2799 60.2007C80.6399 60.2007 83.9999 62.1607 85.5399 65.3807C85.6799 65.6607 85.6799 66.0807 85.5399 66.3607C85.3999 66.6407 84.9799 66.7807 84.6999 66.7807H79.5199L78.2599 68.0407V70.9807L79.5199 72.2407H84.6999C84.9799 72.2407 85.2599 72.3807 85.5399 72.6607C85.6799 72.9407 85.8199 73.2207 85.6799 73.5007C84.5599 76.4407 81.0599 78.6807 77.2799 78.6807Z" fill="white"/>
<path d="M21.8399 77.42C21.5599 77 21.1399 76.72 20.7199 76.72C20.2999 76.72 19.7399 76.86 19.1799 77.14C17.9199 77.84 17.6399 78.68 18.1999 79.66C18.4799 80.08 18.7599 80.5 19.3199 80.92L18.3399 81.48C17.9199 81.2 17.4999 80.64 17.0799 80.08C16.6599 79.24 16.5199 78.54 16.6599 77.84C16.7999 77.14 17.4999 76.44 18.3399 76.02C18.8999 75.74 19.4599 75.46 20.0199 75.46C20.5799 75.46 21.1399 75.46 21.5599 75.74C21.9799 76.02 22.3999 76.44 22.6799 76.86C22.9599 77.42 23.2399 77.98 23.2399 78.68L22.1199 78.82C22.1199 78.54 22.1199 78.26 21.9799 78.12C21.8399 77.98 21.9799 77.7 21.8399 77.42Z" fill="white"/>
<path d="M22.5402 87.0801L20.1602 84.2801L25.0602 80.0801L27.4402 82.8801L26.6002 83.5801L25.0602 81.7601L23.9402 82.6001L25.3402 84.2801L24.5002 84.9801L23.1002 83.3001L21.8402 84.4201L23.3802 86.2401L22.5402 87.0801Z" fill="white"/>
<path d="M30.9398 88.8999C30.5198 89.4599 29.9598 89.7399 29.3998 89.7399C28.8398 89.7399 28.2798 89.4599 27.7198 88.8999L27.2998 88.4799L25.7598 90.1599L24.7798 89.3199L28.9798 84.4199L30.5198 85.6799C31.0798 86.2399 31.4998 86.6599 31.4998 87.2199C31.4998 87.7799 31.4998 88.3399 30.9398 88.8999ZM27.9998 87.6399L28.2798 87.9199C28.5598 88.1999 28.8398 88.3399 29.1198 88.3399C29.3998 88.3399 29.6798 88.1999 29.8198 88.0599C29.9598 87.7799 30.0998 87.6399 30.0998 87.3599C30.0998 87.0799 29.9598 86.9399 29.6798 86.6599L29.2598 86.2399L27.9998 87.6399Z" fill="white"/>
<path d="M34.0198 88.6201L35.6998 89.6001C36.5398 90.0201 36.9598 90.5801 37.2398 91.0001C37.5198 91.4201 37.3798 91.8401 37.0998 92.4001C36.9598 92.6801 36.6798 92.9601 36.3998 93.1001C36.1198 93.2401 35.8398 93.2401 35.5598 93.1001C35.8398 93.3801 35.9798 93.6601 36.1198 93.9401C36.1198 94.2201 36.1198 94.6401 35.8398 94.9201C35.5598 95.4801 35.1398 95.7601 34.5798 95.7601C34.0198 95.7601 33.4598 95.6201 32.8998 95.3401L30.7998 94.0801L34.0198 88.6201ZM33.3198 92.4001L32.4798 93.8001L33.1798 94.2201C33.4598 94.3601 33.7398 94.5001 34.0198 94.5001C34.2998 94.5001 34.4398 94.3601 34.5798 94.0801C34.8598 93.6601 34.7198 93.2401 34.0198 92.8201L33.3198 92.4001ZM33.8798 91.4201L34.5798 91.8401C34.8598 91.9801 35.1398 92.1201 35.4198 92.1201C35.5598 92.1201 35.8398 91.9801 35.9798 91.7001C36.1198 91.5601 36.1198 91.2801 35.9798 91.1401C35.8398 91.0001 35.6998 90.7201 35.2798 90.5801L34.7198 90.1601L33.8798 91.4201Z" fill="white"/>
<path d="M39.8998 91.98L41.0198 92.4L40.0398 95.2L39.7598 95.9L39.3398 96.74L43.8198 93.24L45.3598 93.8L43.1198 99.82L41.9998 99.54L42.9798 96.6C43.1198 96.18 43.3998 95.62 43.6798 94.92L39.1998 98.56L37.7998 98L39.8998 91.98Z" fill="white"/>
<path d="M50.2597 95.9002C49.6997 95.7602 49.2797 95.9002 48.9997 96.3202C48.7197 96.6002 48.4397 97.1602 48.2997 97.8602C48.0197 99.2602 48.4397 100.1 49.5597 100.24C49.9797 100.38 50.5397 100.24 51.2397 100.1L51.0997 101.22C50.5397 101.36 49.9797 101.36 49.2797 101.22C48.2997 101.08 47.7397 100.66 47.3197 100.1C46.8997 99.4002 46.7597 98.5602 47.0397 97.5802C47.1797 96.8802 47.3197 96.3202 47.7397 95.9002C48.0197 95.4802 48.4397 95.0602 48.9997 94.9202C49.4197 94.7802 49.9797 94.6402 50.6797 94.7802C51.2397 94.9202 51.9397 95.0602 52.4997 95.4802L51.5197 96.6002C51.2397 96.4602 51.0997 96.3202 50.8197 96.1802C50.6797 96.0402 50.3997 95.9002 50.2597 95.9002Z" fill="white"/>
<path d="M59.7802 97.4402C60.3402 97.4402 60.9002 97.5802 61.3202 97.8602C61.7402 98.1402 61.8802 98.7002 62.0202 99.2602C62.0202 99.9602 61.8802 100.52 61.4602 100.94C61.0402 101.36 60.4802 101.64 59.6402 101.64C58.9402 101.64 58.3802 101.64 57.9602 101.5L57.8202 100.38C58.1002 100.52 58.3802 100.52 58.6602 100.66C58.9402 100.66 59.2202 100.66 59.5002 100.66C60.3402 100.66 60.7602 100.24 60.6202 99.5402C60.6202 98.8402 60.0602 98.5602 59.2202 98.7002C59.0802 98.7002 58.9402 98.7002 58.6602 98.8402C58.5202 98.8402 58.3802 98.9802 58.2402 98.9802L57.6802 98.7002V95.4802L61.1802 95.2002L61.3202 96.3202L59.0802 96.4602V97.7202H59.2202C59.2202 97.4402 59.5002 97.4402 59.7802 97.4402Z" fill="white"/>
<path d="M71.5399 93.8001C71.6799 94.2201 71.6799 94.5001 71.3999 94.9201C71.2599 95.2001 70.8399 95.6201 70.4199 95.7601C70.9799 95.6201 71.3999 95.6201 71.8199 95.7601C72.2399 95.9001 72.5199 96.1801 72.6599 96.6001C72.7999 97.1601 72.7999 97.7201 72.3799 98.1401C72.0999 98.5601 71.5399 98.9801 70.6999 99.2601C69.8599 99.5401 69.0199 99.6801 68.4599 99.6801L68.0399 98.5601C68.3199 98.5601 68.7399 98.5601 69.0199 98.5601C69.2999 98.5601 69.7199 98.4201 69.9999 98.2801C70.9799 97.8601 71.3999 97.4401 71.2599 96.8801C71.1199 96.6001 70.9799 96.4601 70.5599 96.4601C70.1399 96.4601 69.7199 96.4601 69.0199 96.7401L68.4599 96.8801L68.1799 95.9001L68.7399 95.7601C69.4399 95.4801 69.8599 95.3401 70.1399 95.0601C70.4199 94.7801 70.4199 94.6401 70.4199 94.3601C70.2799 94.2201 70.1399 94.0801 69.9999 93.9401C69.8599 93.8001 69.4399 93.9401 69.1599 94.0801C68.5999 94.2201 68.0399 94.6401 67.7599 95.2001L66.9199 94.5001C67.1999 94.2201 67.4799 93.8001 67.8999 93.6601C68.1799 93.3801 68.5999 93.2401 69.1599 93.1001C69.8599 92.8201 70.4199 92.8201 70.8399 92.9601C71.1199 92.9601 71.3999 93.2401 71.5399 93.8001Z" fill="white"/>
<path d="M73.2197 91.4202L74.8997 90.4402C75.7397 90.0202 76.2997 89.7402 76.8597 89.8802C77.4197 90.0202 77.6997 90.1602 77.9797 90.7202C78.1197 91.0002 78.2597 91.4202 78.2597 91.7002C78.2597 91.9802 78.1197 92.2602 77.8397 92.4002C78.2597 92.2602 78.5397 92.2602 78.8197 92.4002C79.0997 92.5402 79.3797 92.8202 79.5197 93.1002C79.7997 93.6602 79.7997 94.0802 79.6597 94.6402C79.5197 95.0602 79.0997 95.6202 78.3997 95.9002L76.2997 97.0202L73.2197 91.4202ZM75.5997 92.9602L76.2997 92.5402C76.5797 92.4002 76.8597 92.1202 76.8597 91.9802C76.9997 91.8402 76.8597 91.5602 76.8597 91.4202C76.7197 91.1402 76.5797 91.1402 76.2997 91.1402C76.0197 91.1402 75.8797 91.2802 75.4597 91.4202L74.8997 91.7002L75.5997 92.9602ZM76.1597 93.9402L76.9997 95.3402L77.8397 94.9202C78.1197 94.7802 78.3997 94.5002 78.3997 94.3602C78.5397 94.0802 78.3997 93.9402 78.2597 93.6602C77.9797 93.2402 77.5597 93.1002 76.8597 93.5202L76.1597 93.9402Z" fill="white"/>
<path d="M78.5399 86.6601C78.3999 86.5201 78.3999 86.3801 78.3999 86.2401C78.3999 86.1001 78.5399 85.9601 78.6799 85.8201C78.8199 85.6801 78.9599 85.6801 79.0999 85.6801C79.2399 85.6801 79.3799 85.8201 79.5199 85.9601C79.6599 86.1001 79.6599 86.2401 79.6599 86.3801C79.6599 86.5201 79.5199 86.6601 79.3799 86.8001C79.2399 86.9401 79.0999 86.9401 78.9599 86.9401C78.8199 86.9401 78.6799 86.8001 78.5399 86.6601ZM85.9599 90.5801L83.0199 92.8201L79.0999 87.7801L82.0399 85.5401L82.7399 86.3801L80.9199 87.7801L81.7599 88.9001L83.4399 87.5001L84.1399 88.3401L82.4599 89.7401L83.4399 91.0001L85.2599 89.6001L85.9599 90.5801ZM79.9399 85.5401C79.7999 85.4001 79.7999 85.2601 79.7999 85.1201C79.7999 84.9801 79.9399 84.8401 80.0799 84.7001C80.2199 84.5601 80.3599 84.5601 80.4999 84.5601C80.6399 84.5601 80.7799 84.7001 80.9199 84.8401C81.0599 84.9801 81.0599 85.1201 81.0599 85.2601C81.0599 85.4001 80.9199 85.5401 80.7799 85.6801C80.6399 85.8201 80.4999 85.8201 80.3599 85.8201C80.2199 85.8201 80.0799 85.6801 79.9399 85.5401Z" fill="white"/>
<path d="M87.6401 81.76C87.9201 82.04 88.0601 82.32 88.0601 82.74C88.0601 83.16 87.9201 83.58 87.6401 84C88.0601 83.58 88.4801 83.44 88.9001 83.3C89.3201 83.16 89.6001 83.3 90.0201 83.72C90.4401 84.14 90.5801 84.56 90.5801 85.12C90.5801 85.68 90.1601 86.24 89.6001 86.94C88.9001 87.64 88.3401 88.06 87.7801 88.34L86.9401 87.64C87.2201 87.5 87.5001 87.36 87.7801 87.08C88.0601 86.8 88.3401 86.66 88.6201 86.38C89.3201 85.54 89.4601 84.98 89.0401 84.56C88.9001 84.42 88.6201 84.42 88.2001 84.56C87.9201 84.7 87.5001 84.98 86.9401 85.54L86.5201 85.96L85.6801 85.26L86.1001 84.84C86.5201 84.28 86.8001 84 86.9401 83.58C87.0801 83.3 86.9401 83.02 86.8001 82.74C86.6601 82.6 86.3801 82.6 86.2401 82.6C85.9601 82.6 85.8201 82.88 85.5401 83.16C85.1201 83.58 84.8401 84.14 84.7001 84.84L83.5801 84.7C83.5801 84.28 83.7201 83.86 84.0001 83.44C84.2801 83.02 84.4201 82.74 84.8401 82.32C85.2601 81.76 85.8201 81.48 86.2401 81.34C86.6601 81.2 87.3601 81.48 87.6401 81.76Z" fill="white"/>
<path d="M91.9801 82.4601L92.2601 82.0401C91.7001 81.2001 91.2801 80.5001 90.5801 79.8001C90.0201 79.1001 89.3201 78.5401 88.6201 77.8401L90.5801 74.6201L95.0601 77.4201L95.4801 76.7201L98.0001 78.4001L97.3001 79.5201L95.7601 78.5401L93.6601 81.9001L95.2001 82.8801L94.5001 84.0001L91.9801 82.4601ZM90.1601 77.5601C90.7201 77.9801 91.1401 78.5401 91.7001 79.1001C92.2601 79.6601 92.6801 80.2201 92.9601 80.7801L94.2201 78.6801L90.7201 76.4401L90.1601 77.5601Z" fill="white"/>
</svg>
