<svg width="19" height="21" viewBox="0 0 19 21" fill="none" xmlns="http://www.w3.org/2000/svg">
<path d="M1.33268 8.73238C1.33268 14.9192 9.49935 20.2223 9.49935 20.2223C9.49935 20.2223 17.666 14.9192 17.666 8.73238C17.666 6.6227 16.8056 4.59943 15.2741 3.10766C13.7425 1.6159 11.6653 0.777832 9.49935 0.777832C7.33342 0.777832 5.25619 1.6159 3.72465 3.10766C2.1931 4.59943 1.33268 6.6227 1.33268 8.73238Z" stroke="white" stroke-linecap="round" stroke-linejoin="round"/>
<path d="M9.49935 11.3839C7.99591 11.3839 6.77713 10.1968 6.77713 8.73238C6.77713 7.26799 7.99591 6.08086 9.49935 6.08086C11.0028 6.08086 12.2216 7.26799 12.2216 8.73238C12.2216 10.1968 11.0028 11.3839 9.49935 11.3839Z" stroke="white" stroke-linecap="round" stroke-linejoin="round"/>
</svg>
