<svg width="69" height="90" viewBox="0 0 69 90" fill="none" xmlns="http://www.w3.org/2000/svg">
<path d="M52.5893 0.895814H12.8224C11.7524 0.895814 10.7263 1.32086 9.96971 2.07744C9.21313 2.83402 8.78809 3.86017 8.78809 4.93014V74.8739C8.78809 75.9438 9.21313 76.97 9.96971 77.7266C10.7263 78.4831 11.7524 78.9082 12.8224 78.9082H21.5423C21.848 78.9082 22.1412 78.7867 22.3574 78.5706C22.5735 78.3544 22.695 78.0612 22.695 77.7555V76.0265C22.695 75.7208 22.5735 75.4276 22.3574 75.2115C22.1412 74.9953 21.848 74.8739 21.5423 74.8739H12.8051V4.93014H48.6069V17.9553C48.6069 19.0252 49.0319 20.0514 49.7885 20.808C50.5451 21.5645 51.5712 21.9896 52.6412 21.9896H64.3235V74.8623H54.7794C54.4737 74.8623 54.1805 74.9838 53.9644 75.1999C53.7482 75.4161 53.6267 75.7093 53.6267 76.015V77.744C53.6267 78.0497 53.7482 78.3429 53.9644 78.559C54.1805 78.7752 54.4737 78.8967 54.7794 78.8967H64.3235C64.8533 78.8967 65.3779 78.7923 65.8673 78.5896C66.3568 78.3868 66.8015 78.0897 67.1762 77.715C67.5508 77.3404 67.848 76.8957 68.0507 76.4062C68.2534 75.9167 68.3578 75.3921 68.3578 74.8623V18.3183C68.3594 17.3365 68.0028 16.3877 67.355 15.6499L55.6324 2.27901C55.2535 1.84438 54.7858 1.49603 54.2609 1.25742C53.7359 1.01882 53.166 0.895514 52.5893 0.895814ZM52.6527 17.9553V5.02235L63.9834 17.9553H52.6527Z" fill="#7B7B7B"/>
<path d="M33.1785 15.0563H7.98123C3.76694 15.0563 0.350586 18.4726 0.350586 22.6869V26.2602C0.350586 30.4745 3.76694 33.8908 7.98123 33.8908H33.1785C37.3928 33.8908 40.8091 30.4745 40.8091 26.2602V22.6869C40.8091 18.4726 37.3928 15.0563 33.1785 15.0563Z" fill="#FF0000"/>
<path d="M6.94922 29.6663V19.5805H11.3582C12.2909 19.5304 13.2084 19.8328 13.9286 20.4277C14.2285 20.71 14.4674 21.0508 14.6308 21.4289C14.7941 21.807 14.8783 22.2145 14.8783 22.6264C14.8783 23.0383 14.7941 23.4458 14.6308 23.8239C14.4674 24.202 14.2285 24.5428 13.9286 24.8251C13.2093 25.422 12.2917 25.7265 11.3582 25.6781H9.02402V29.6721L6.94922 29.6663ZM9.02402 23.903H11.2141C12.2111 23.903 12.8048 23.4534 12.8048 22.6466C12.8048 21.8397 12.2284 21.3959 11.2141 21.3959H9.02402V23.903Z" fill="white"/>
<path d="M16.4473 29.6663V19.5805H20.2222C21.6839 19.5197 23.1127 20.0256 24.2105 20.9925C24.7165 21.449 25.1168 22.0104 25.3836 22.6375C25.6504 23.2646 25.7771 23.9423 25.755 24.6234C25.7765 25.3062 25.6495 25.9854 25.3828 26.6143C25.1161 27.2432 24.7161 27.8067 24.2105 28.2659C23.1112 29.2292 21.6825 29.7309 20.2222 29.6663H16.4473ZM18.5221 27.8048H20.0493C22.297 27.8048 23.6226 26.6521 23.6226 24.6234C23.6226 22.5948 22.297 21.4363 20.0493 21.4363H18.5221V27.8048Z" fill="white"/>
<path d="M27.6221 29.6663V19.5804H35.0164V21.4362H29.6969V23.4822H33.8061V25.315H29.6969V29.6663H27.6221Z" fill="white"/>
<path d="M50.4909 79.2425L38.9297 89.5646C38.7182 89.7542 38.4443 89.859 38.1603 89.859C37.8763 89.859 37.6023 89.7542 37.3909 89.5646L25.8239 79.2425C25.6476 79.0871 25.5231 78.8815 25.467 78.6533C25.4108 78.4252 25.4258 78.1853 25.5098 77.9658C25.5938 77.7464 25.7429 77.5579 25.9371 77.4255C26.1312 77.2932 26.3612 77.2233 26.5962 77.2253H29.9216C30.2273 77.2253 30.5205 77.1039 30.7367 76.8877C30.9528 76.6716 31.0743 76.3784 31.0743 76.0727V61.4915C31.0743 61.1858 31.1957 60.8926 31.4119 60.6764C31.6281 60.4602 31.9212 60.3388 32.2269 60.3388H44.0821C44.3878 60.3388 44.681 60.4602 44.8971 60.6764C45.1133 60.8926 45.2348 61.1858 45.2348 61.4915V76.0727C45.2348 76.3784 45.3562 76.6716 45.5724 76.8877C45.7885 77.1039 46.0817 77.2253 46.3874 77.2253H49.7186C49.9536 77.2233 50.1836 77.2932 50.3777 77.4255C50.5719 77.5579 50.721 77.7464 50.805 77.9658C50.889 78.1853 50.904 78.4252 50.8478 78.6533C50.7917 78.8815 50.6672 79.0871 50.4909 79.2425Z" fill="#FF0000"/>
<path d="M54.8778 44.0515H22.2517C21.7029 44.0515 21.1767 43.8336 20.7886 43.4455C20.4006 43.0575 20.1826 42.5312 20.1826 41.9825C20.1819 41.7103 20.2348 41.4406 20.3385 41.189C20.4421 40.9373 20.5944 40.7085 20.7866 40.5158C20.9788 40.323 21.2071 40.1701 21.4585 40.0658C21.7099 39.9614 21.9795 39.9077 22.2517 39.9077H54.8778C55.4271 39.9092 55.9534 40.1285 56.3412 40.5174C56.7291 40.9064 56.9469 41.4332 56.9469 41.9825C56.9469 42.5312 56.7289 43.0575 56.3409 43.4455C55.9528 43.8336 55.4266 44.0515 54.8778 44.0515Z" fill="#7B7B7B"/>
<path d="M54.8778 52.8695H22.2517C21.9795 52.8695 21.7099 52.8158 21.4585 52.7115C21.2071 52.6071 20.9788 52.4542 20.7866 52.2615C20.5944 52.0687 20.4421 51.84 20.3385 51.5883C20.2348 51.3366 20.1819 51.0669 20.1826 50.7947C20.1842 50.247 20.4028 49.7222 20.7907 49.3354C21.1785 48.9486 21.7039 48.7314 22.2517 48.7314H54.8778C55.4266 48.7314 55.9528 48.9494 56.3409 49.3375C56.7289 49.7255 56.9469 50.2517 56.9469 50.8005C56.9453 51.3488 56.7269 51.8741 56.3392 52.2618C55.9515 52.6495 55.4261 52.868 54.8778 52.8695Z" fill="#7B7B7B"/>
</svg>
