<svg width="112" height="112" viewBox="0 0 112 112" fill="none" xmlns="http://www.w3.org/2000/svg">
<path d="M56.0001 107.38C84.3765 107.38 107.38 84.3765 107.38 56.0001C107.38 27.6237 84.3765 4.62012 56.0001 4.62012C27.6237 4.62012 4.62012 27.6237 4.62012 56.0001C4.62012 84.3765 27.6237 107.38 56.0001 107.38Z" fill="#7D8A8E"/>
<path d="M55.9999 112C53.3399 112 50.5399 111.86 47.8799 111.44L48.1599 109.34C50.6799 109.76 53.3399 109.9 55.8599 109.9C85.5399 109.9 109.76 85.6799 109.76 55.9999C109.76 30.9399 91.9799 8.8199 67.6199 3.3599L68.1799 1.3999C93.6599 6.9999 112 29.9599 112 55.9999C112 86.9399 86.9399 112 55.9999 112Z" fill="#7D8A8E"/>
<path d="M43.96 110.74C18.48 105.14 0 82.18 0 56C0 25.06 25.06 0 56 0C58.8 0 61.6 0.14 64.26 0.56L63.98 2.66C61.32 2.24 58.66 2.1 56 2.1C26.32 2.1 2.1 26.32 2.1 56C2.1 81.2 19.88 103.32 44.38 108.64L43.96 110.74Z" fill="black"/>
<path d="M10.5 60.4802V58.9401L13.72 56.5602L10.5 56.7002V55.3002L16.94 55.1602V56.5602L13.86 56.7002L17.08 58.9401V60.3401L14 58.1002L10.5 60.4802Z" fill="white"/>
<path d="M15.2602 68.18C14.2802 68.46 13.4402 68.32 12.7402 67.9C12.0402 67.48 11.6202 66.78 11.4802 65.94C11.3402 65.1 11.2002 64.26 11.7602 63.56C12.3202 62.86 12.8802 62.44 14.0002 62.3C14.9802 62.02 15.8202 62.16 16.5202 62.58C17.2202 63 17.6402 63.7 17.7802 64.54C18.0602 65.52 17.9202 66.36 17.5002 66.92C16.9402 67.48 16.2402 68.04 15.2602 68.18ZM14.2802 63.7C13.5802 63.84 13.0202 64.12 12.7402 64.4C12.4602 64.68 12.3202 65.24 12.4602 65.66C12.7402 66.78 13.5802 67.06 14.9802 66.78C16.3802 66.5 16.9402 65.8 16.8002 64.68C16.6602 64.12 16.3802 63.84 15.9602 63.56C15.5402 63.56 14.9802 63.56 14.2802 63.7Z" fill="white"/>
<path d="M15.2598 76.8604L14.8398 75.6004L17.3598 74.4804L16.3798 72.1004L13.8598 73.2204L13.2998 71.9604L19.1798 69.4404L19.7398 70.7004L17.4998 71.6804L18.4798 74.0604L20.7198 73.0804L21.2798 74.3404L15.2598 76.8604Z" fill="white"/>
<path d="M23.0998 79.24C22.8198 78.82 22.3998 78.54 21.9798 78.54C21.5598 78.54 20.9998 78.68 20.4398 79.1C19.3198 79.94 19.0398 80.78 19.5998 81.62C19.8798 82.04 20.2998 82.32 20.8598 82.74L19.8798 83.44C19.4598 83.16 19.0398 82.74 18.6198 82.18C18.0598 81.48 17.9198 80.64 18.0598 79.94C18.1998 79.24 18.7598 78.54 19.5998 77.98C20.1598 77.56 20.7198 77.42 21.2798 77.28C21.8398 77.14 22.3998 77.28 22.8198 77.56C23.2398 77.84 23.6598 78.12 24.0798 78.68C24.3598 79.24 24.6398 79.8 24.7798 80.5L23.6598 80.78C23.6598 80.5 23.5198 80.22 23.5198 80.08C23.2398 79.66 23.2398 79.38 23.0998 79.24Z" fill="white"/>
<path d="M24.36 88.9002L25.06 87.5002L23.38 85.8202L21.98 86.5202L21 85.5402L27.16 82.7402L28.28 83.8602L25.2 89.8802L24.36 88.9002ZM25.76 86.5202C26.46 85.2602 26.88 84.5602 26.88 84.4202C27.02 84.2802 27.02 84.1402 27.16 84.0002C26.88 84.1402 26.04 84.7002 24.64 85.4002L25.76 86.5202Z" fill="white"/>
<path d="M31.6399 94.7801L30.5199 93.9401L33.5999 89.6001L32.3399 88.7601L31.9199 89.1801C30.9399 90.3001 30.2399 91.0001 29.6799 91.4201C29.2599 91.8401 28.8399 92.1201 28.4199 92.1201C27.9999 92.1201 27.7199 92.1201 27.2999 91.8401C27.1599 91.7001 26.8799 91.5601 26.8799 91.4201L27.5799 90.5801C27.7199 90.7201 27.8599 90.8601 27.8599 90.8601C27.9999 91.0001 28.1399 91.0001 28.2799 90.8601C28.4199 90.8601 28.6999 90.5801 28.9799 90.3001C29.2599 90.0201 29.6799 89.6001 30.3799 88.9001C30.9399 88.2001 31.4999 87.6401 32.0599 87.0801L35.2799 89.4601L31.6399 94.7801Z" fill="white"/>
<path d="M36.9602 97.5801L35.7002 97.0201L37.9402 92.2601L36.4002 91.5601L36.8202 90.5801L41.1602 92.6801L40.7402 93.6601L39.2002 92.9601L36.9602 97.5801Z" fill="white"/>
<path d="M42.9799 93.2402L44.0999 93.5202L43.3999 96.4602L43.1199 97.3002L42.8399 98.1402L46.8999 94.2202L48.4399 94.6402L46.8999 100.8L45.7799 100.52L46.6199 97.5802C46.7599 97.1602 46.8999 96.6002 47.1799 95.9002L43.1199 99.8202L41.4399 99.4002L42.9799 93.2402Z" fill="white"/>
<path d="M55.86 101.78L54.46 101.64L54.6 98.8401L52.08 98.7001L51.94 101.5L50.54 101.36L50.96 95.0601L52.36 95.2001L52.22 97.7201L54.74 97.8601L54.88 95.3401L56.28 95.4801L55.86 101.78Z" fill="white"/>
<path d="M62.7202 94.7803L62.8602 95.9003L60.2002 96.1803L60.7602 101.36L59.3602 101.5L58.6602 95.2003L62.7202 94.7803Z" fill="white"/>
<path d="M68.8799 92.6804L69.7199 92.4004L72.6599 100.66L71.8199 100.94L68.8799 92.6804Z" fill="white"/>
<path d="M83.0201 92.8204L81.7601 91.8404L79.8001 93.1004L80.2201 94.6404L78.9601 95.4804L77.1401 88.9004L78.5401 87.9204L84.0001 91.9804L83.0201 92.8204ZM80.9201 91.0004C79.8001 90.1604 79.1001 89.6004 78.9601 89.4604C78.8201 89.3204 78.6801 89.1804 78.6801 89.1804C78.8201 89.6004 79.1001 90.4404 79.5201 91.9804L80.9201 91.0004Z" fill="white"/>
<path d="M90.1599 86.5204L89.1799 87.5004L87.2199 85.4004L85.3999 87.2204L87.3599 89.1804L86.3799 90.1604L81.8999 85.6804L82.8799 84.7004L84.6999 86.5204L86.5199 84.7004L84.6999 82.8804L85.6799 81.9004L90.1599 86.5204Z" fill="white"/>
<path d="M94.6399 80.3601L93.0999 79.9401L91.8399 81.9001L92.8199 83.1601L91.9799 84.4201L87.9199 78.9601L88.8999 77.5601L95.4799 79.3801L94.6399 80.3601ZM91.9799 79.5201C90.5799 79.1001 89.8799 78.8201 89.5999 78.8201C89.3199 78.8201 89.3199 78.6801 89.1799 78.6801C89.4599 78.9601 90.0199 79.6601 90.9999 80.9201L91.9799 79.5201Z" fill="white"/>
<path d="M98.8401 72.1001L98.2801 73.3601L93.5201 71.2601L92.8201 72.6601L93.3801 72.9401C94.6401 73.6401 95.6201 74.3401 96.0401 74.6201C96.4601 74.9001 96.8801 75.3201 97.0201 75.7401C97.1601 76.0201 97.1601 76.4401 96.8801 76.8601C96.7401 77.1401 96.6001 77.2801 96.6001 77.4201L95.4801 77.0001C95.6201 76.8601 95.7601 76.7201 95.7601 76.5801C95.7601 76.4401 95.7601 76.3001 95.7601 76.1601C95.7601 76.0201 95.4801 75.8801 95.2001 75.6001C94.9201 75.3201 94.3601 75.0401 93.6601 74.4801C92.9601 73.9201 92.2601 73.6401 91.5601 73.2201L93.2401 69.5801L98.8401 72.1001Z" fill="white"/>
<path d="M93.7998 67.3404L94.0798 66.2204L97.1598 66.9204L97.9998 67.0604L98.8398 67.3404L94.7798 63.4204L95.0598 61.8804L101.36 63.2804L101.08 64.4004L97.9998 63.5604C97.5798 63.4204 97.0198 63.2804 96.1798 63.1404L100.38 67.0604L99.9598 68.6004L93.7998 67.3404Z" fill="white"/>
<path d="M96.7401 54.8802C97.1601 54.8802 97.4401 55.0202 97.7201 55.3002C98.0001 55.5802 98.1401 56.0002 98.1401 56.5602C98.2801 56.0002 98.4201 55.5802 98.7001 55.1602C98.9801 54.7402 99.2601 54.7402 99.6801 54.7402C100.24 54.7402 100.66 55.0202 101.08 55.4402C101.5 55.8602 101.5 56.5602 101.5 57.4002C101.5 58.3802 101.36 59.0802 101.08 59.6402H99.9601C100.1 59.3602 100.24 59.0802 100.24 58.6602C100.38 58.2402 100.38 57.9602 100.38 57.6802C100.38 56.5602 100.1 56.0002 99.5401 56.0002C99.2601 56.0002 98.9801 56.1402 98.8401 56.5602C98.7001 56.9802 98.5601 57.4002 98.5601 58.1002V58.6602H97.4401V58.1002C97.4401 57.4002 97.4401 56.9802 97.3001 56.5602C97.1601 56.2802 97.0201 56.1402 96.7401 56.1402C96.4601 56.1402 96.3201 56.2802 96.1801 56.4202C96.0401 56.5602 96.0401 56.8402 95.9001 57.2602C95.9001 57.8202 96.0401 58.3802 96.3201 59.0802L95.3401 59.6402C95.0601 59.2202 94.9201 58.9402 94.7801 58.5202C94.6401 58.1002 94.6401 57.6802 94.6401 57.1202C94.6401 56.4202 94.7801 55.8602 95.0601 55.4402C95.3401 55.0202 96.3201 54.8802 96.7401 54.8802Z" fill="white"/>
<path d="M48.9999 65.9394H42.8399C42.2799 65.9394 41.8599 65.5194 41.8599 64.9594V54.3194C41.8599 53.7594 42.2799 53.3394 42.8399 53.3394H48.9999C49.5599 53.3394 49.9799 53.7594 49.9799 54.3194V64.9594C49.9799 65.5194 49.5599 65.9394 48.9999 65.9394ZM43.8199 63.9794H48.0199V55.2994H43.8199V63.9794Z" fill="white"/>
<path d="M59.0799 65.9396H52.9199C52.3599 65.9396 51.9399 65.5196 51.9399 64.9596V40.0396C51.9399 39.4796 52.3599 39.0596 52.9199 39.0596H59.0799C59.6399 39.0596 60.0599 39.4796 60.0599 40.0396V64.9596C60.0599 65.5196 59.6399 65.9396 59.0799 65.9396ZM53.8999 63.9796H58.0999V41.0196H53.8999V63.9796Z" fill="white"/>
<path d="M69.16 65.9394H63C62.44 65.9394 62.02 65.5194 62.02 64.9594V46.8994C62.02 46.3394 62.44 45.9194 63 45.9194H69.16C69.72 45.9194 70.14 46.3394 70.14 46.8994V64.9594C70.14 65.5194 69.72 65.9394 69.16 65.9394ZM63.98 63.9794H68.18V47.8794H63.98V63.9794Z" fill="white"/>
<path d="M55.9997 76.5796C43.6797 76.5796 33.7397 66.6396 33.7397 54.3196C33.7397 41.9996 43.6797 32.0596 55.9997 32.0596C68.3197 32.0596 78.2598 41.9996 78.2598 54.3196C78.2598 66.6396 68.3197 76.5796 55.9997 76.5796ZM55.9997 34.0196C44.7997 34.0196 35.6997 43.1196 35.6997 54.3196C35.6997 65.5196 44.7997 74.6196 55.9997 74.6196C67.1997 74.6196 76.2997 65.5196 76.2997 54.3196C76.2997 43.1196 67.1997 34.0196 55.9997 34.0196Z" fill="white"/>
<path d="M50.9598 86.5198C50.5398 86.5198 50.1198 86.0998 49.9798 85.6798L49.1398 80.4998C48.1598 80.2198 47.3198 79.9398 46.3398 79.6598L43.3998 83.2998C43.1198 83.7198 42.5598 83.7198 42.1398 83.5798L35.4198 79.7998C34.9998 79.5198 34.8598 79.0998 34.9998 78.5398L36.9598 73.4998C36.2598 72.7998 35.6998 72.0998 35.1398 71.3998L30.5198 73.2198C30.0998 73.3598 29.5398 73.2198 29.2598 72.7998L25.3398 66.0798C25.0598 65.6598 25.1998 65.0998 25.6198 64.8198L29.9598 61.3198C29.6798 60.4798 29.5398 59.6398 29.3998 58.6598L24.4998 57.9598C24.0798 57.8198 23.7998 57.3998 23.7998 56.9798V49.2798C23.7998 48.8598 24.2198 48.4398 24.6398 48.2998L30.0998 47.4598C30.3798 46.6198 30.6598 45.6398 30.9398 44.9398L27.0198 41.8598C26.5998 41.5798 26.5998 41.0198 26.7398 40.5998L30.5198 33.8798C30.7998 33.4598 31.2198 33.3198 31.7798 33.4598L36.8198 35.4198C37.5198 34.7198 38.2198 34.1598 38.9198 33.4598L37.0998 28.9798C36.9598 28.5598 37.0998 27.9998 37.5198 27.7198L44.2398 23.9398C44.6598 23.6598 45.2198 23.7998 45.4998 24.2198L48.8598 28.2798C49.6998 27.9998 50.6798 27.8598 51.6598 27.7198L52.3598 23.0998C52.4998 22.6798 52.7798 22.2598 53.3398 22.2598H61.0398C61.4598 22.2598 61.8798 22.6798 62.0198 23.0998L62.8598 28.2798C63.8398 28.5598 64.8198 28.8398 65.6598 29.1198L68.5998 25.4798C68.8798 25.0598 69.4398 25.0598 69.8598 25.1998L76.5798 29.1198C76.9998 29.3998 77.1398 29.8198 76.9998 30.3798L75.0398 35.4198C75.7398 36.1198 76.2998 36.8198 76.8598 37.5198L81.4798 35.6998C81.8998 35.5598 82.4598 35.6998 82.7398 36.1198L86.6598 42.8398C86.9398 43.2598 86.7998 43.8198 86.3798 44.0998L82.0398 47.5998C82.3198 48.4398 82.4598 49.2798 82.5998 50.2598L87.4998 50.9598C87.9198 51.0998 88.3398 51.3798 88.3398 51.9398V53.6198V57.9598V59.6398C88.3398 60.0598 87.9198 60.4798 87.4998 60.6198L82.0398 61.4598C81.7598 62.2998 81.4798 63.2798 81.1998 63.9798L85.1198 67.0598C85.5398 67.3398 85.5398 67.8998 85.3998 68.3198L81.6198 75.0398C81.3398 75.4598 80.9198 75.5998 80.3598 75.4598L75.3198 73.4998C74.6198 74.1998 73.9198 74.7598 73.2198 75.4598L75.0398 79.9398C75.1798 80.3598 75.0398 80.9198 74.6198 81.1998L67.8998 84.9798C67.4798 85.2598 66.9198 85.1198 66.6398 84.6998L63.2798 80.6398C62.4398 80.9198 61.4598 81.0598 60.4798 81.1998L59.7798 85.9598C59.6398 86.3798 59.3598 86.7998 58.7998 86.7998H57.1198H52.7798L50.9598 86.5198ZM52.6398 84.5598H57.8198L58.5198 79.9398C58.5198 79.5198 58.9398 79.2398 59.3598 79.0998C60.7598 78.9598 62.0198 78.6798 63.2798 78.2598C63.6998 78.1198 64.1198 78.2598 64.3998 78.5398L67.6198 82.4598L72.7998 79.5198L71.1198 75.0398C70.9798 74.6198 71.1198 74.1998 71.3998 73.9198C72.3798 73.0798 73.3598 72.2398 74.1998 71.2598C74.4798 70.9798 74.8998 70.8398 75.3198 70.9798L80.2198 72.9398L83.1598 67.7598L79.3798 64.6798C79.0998 64.3998 78.9598 63.9798 79.0998 63.5598C79.5198 62.4398 79.9398 61.1798 80.2198 59.9198C80.3598 59.4998 80.6398 59.2198 81.0598 59.2198L86.3798 58.3798V57.5398V53.1998V52.3598L81.4798 51.7998C81.0598 51.7998 80.7798 51.3798 80.6398 50.9598C80.4998 49.6998 80.2198 48.4398 79.7998 47.1798C79.6598 46.7598 79.7998 46.3398 80.0798 46.1998L84.2798 42.8398L81.1998 37.6598L76.7198 39.3398C76.2998 39.4798 75.8798 39.3398 75.5998 39.0598C74.7598 37.9398 73.9198 37.0998 73.0798 36.1198C72.7998 35.8398 72.6598 35.4198 72.7998 34.9998L74.7598 30.0998L69.5798 27.1598L66.6398 30.7998C66.3598 31.0798 65.9398 31.2198 65.5198 31.0798C64.3998 30.6598 63.1398 30.2398 61.7398 29.8198C61.3198 29.6798 61.0398 29.3998 61.0398 28.9798L60.1998 24.0798H54.1798L53.4798 28.6998C53.4798 29.1198 53.0598 29.3998 52.6398 29.5398C51.2398 29.6798 49.9798 29.9598 48.7198 30.3798C48.2998 30.5198 47.8798 30.3798 47.5998 30.0998L44.3798 26.1798L39.1998 29.1198L40.8798 33.4598C41.0198 33.8798 40.8798 34.2998 40.5998 34.5798C39.6198 35.4198 38.6398 36.2598 37.7998 37.2398C37.5198 37.5198 37.0998 37.6598 36.6798 37.5198L31.7798 35.5598L28.8398 40.7398L32.6198 43.8198C32.8998 44.0998 33.0398 44.5198 32.8998 44.9398C32.4798 46.0598 32.0598 47.3198 31.7798 48.5798C31.6398 48.9998 31.3598 49.2798 30.9398 49.2798L25.6198 50.1198V56.1398L30.3798 56.8398C30.7998 56.8398 31.0798 57.2598 31.2198 57.6798C31.3598 58.9398 31.6398 60.1998 32.0598 61.4598C32.1998 61.8798 32.0598 62.2998 31.7798 62.4398L27.5798 65.7998L30.5198 70.9798L34.9998 69.2998C35.4198 69.1598 35.8398 69.2998 36.1198 69.5798C36.9598 70.5598 37.7998 71.5398 38.6398 72.5198C38.9198 72.7998 39.0598 73.2198 38.9198 73.6398L37.2398 78.3998L42.4198 81.3398L45.3598 77.6998C45.6398 77.4198 46.0598 77.2798 46.4798 77.4198C47.5998 77.8398 48.8598 78.2598 50.2598 78.6798C50.6798 78.8198 50.9598 79.0998 50.9598 79.5198L51.7998 84.5598H52.6398Z" fill="white"/>
</svg>
