<svg width="112" height="112" viewBox="0 0 112 112" fill="none" xmlns="http://www.w3.org/2000/svg">
<path d="M56.0001 107.38C84.3765 107.38 107.38 84.3765 107.38 56.0001C107.38 27.6237 84.3765 4.62012 56.0001 4.62012C27.6237 4.62012 4.62012 27.6237 4.62012 56.0001C4.62012 84.3765 27.6237 107.38 56.0001 107.38Z" fill="#7D8A8E"/>
<path d="M55.9999 112C53.3399 112 50.5399 111.86 47.8799 111.44L48.1599 109.34C50.6799 109.76 53.3399 109.9 55.8599 109.9C85.5399 109.9 109.76 85.6799 109.76 55.9999C109.76 30.9399 91.9799 8.8199 67.6199 3.3599L68.1799 1.3999C93.6599 6.9999 112 29.9599 112 55.9999C112 86.9399 86.9399 112 55.9999 112Z" fill="#7D8A8E"/>
<path d="M43.96 110.74C18.48 105.14 0 82.18 0 56C0 25.06 25.06 0 56 0C58.8 0 61.6 0.14 64.26 0.56L63.98 2.66C61.32 2.24 58.66 2.1 56 2.1C26.32 2.1 2.1 26.32 2.1 56C2.1 81.2 19.88 103.32 44.38 108.64L43.96 110.74Z" fill="black"/>
<path d="M19.8802 79.7999L17.9202 81.1999L17.2202 80.0799L22.5402 76.4399L23.6602 77.9799C24.0802 78.6799 24.3602 79.3799 24.3602 79.7999C24.3602 80.3599 24.0802 80.7799 23.5202 81.0599C23.2402 81.3399 22.8202 81.3399 22.5402 81.3399C22.1202 81.3399 21.8402 81.1999 21.4202 81.0599C20.7202 82.5999 20.3002 83.7199 20.1602 84.1399L19.3202 82.8799L20.4402 80.2199L19.8802 79.7999ZM20.8602 79.0999L21.1402 79.5199C21.4202 79.9399 21.5602 80.0799 21.8402 80.2199C22.1202 80.3599 22.2602 80.2199 22.5402 80.0799C22.8202 79.9399 22.9602 79.6599 22.9602 79.5199C22.9602 79.2399 22.8202 78.9599 22.5402 78.6799L22.2602 78.3999L20.8602 79.0999Z" fill="white"/>
<path d="M22.6802 87.2199L21.7002 86.2399L26.3202 81.8999L28.8402 84.5599L28.0002 85.2599L26.4602 83.5799L25.2002 84.6999L26.7402 86.2399L25.9002 86.9399L24.3602 85.3999L22.6802 87.2199Z" fill="white"/>
<path d="M26.6001 90.86L30.6601 85.96L31.6401 86.8L27.5801 91.7L26.6001 90.86Z" fill="white"/>
<path d="M36.68 93.7998C36.12 94.6398 35.42 95.1998 34.72 95.3398C33.88 95.4798 33.04 95.3398 32.06 94.7798L30.52 93.7998L33.74 88.3398L35.42 89.3198C36.26 89.8798 36.82 90.4398 37.1 91.2798C37.38 92.1198 37.1 92.9598 36.68 93.7998ZM35.42 93.0998C36.12 91.9798 35.98 90.9998 34.86 90.4398L34.3 90.0198L32.2 93.6598L32.76 93.9398C33.74 94.6398 34.72 94.3598 35.42 93.0998Z" fill="white"/>
<path d="M38.0801 96.0401L38.5001 95.0601L40.6001 95.9001L40.1801 96.8801L38.0801 96.0401Z" fill="white"/>
<path d="M47.7403 94.4999L47.4603 95.6199L44.9403 94.9199L43.5403 99.9599L42.2803 99.5399L43.9603 93.3799L47.7403 94.4999Z" fill="white"/>
<path d="M52.7802 101.64L52.5002 100.1L50.1202 99.8199L49.5602 101.22L48.1602 101.08L51.1002 94.9199L52.7802 95.0599L54.3202 101.64H52.7802ZM52.3602 98.8399C52.0802 97.4399 51.9402 96.5999 51.9402 96.4599C51.9402 96.3199 51.9402 96.1799 51.8002 96.0399C51.6602 96.4599 51.2402 97.2999 50.6802 98.6999L52.3602 98.8399Z" fill="white"/>
<path d="M61.1801 97.0198C61.1801 97.7198 61.0401 98.2798 60.6201 98.6998C60.2001 99.1198 59.6401 99.2598 58.8001 99.3998H58.2401L58.3801 101.64L56.9801 101.78L56.5601 95.4798L58.6601 95.3398C59.5001 95.3398 60.0601 95.4798 60.4801 95.7598C60.9001 95.8998 61.1801 96.3198 61.1801 97.0198ZM58.2401 98.2798H58.6601C59.0801 98.2798 59.3601 98.1398 59.6401 97.9998C59.7801 97.8598 59.9201 97.5798 59.9201 97.2998C59.9201 97.0198 59.7801 96.7398 59.6401 96.5998C59.5001 96.4598 59.2201 96.4598 58.8001 96.4598H58.2401V98.2798Z" fill="white"/>
<path d="M68.3203 99.96L67.4803 98.56L65.2403 99.12V100.8L63.8403 101.08L64.5403 94.3599L66.0803 93.9399L69.7203 99.6799L68.3203 99.96ZM66.9203 97.5799C66.2203 96.3199 65.8003 95.6199 65.6603 95.4799C65.5203 95.3399 65.5203 95.1999 65.3803 95.0599C65.3803 95.4799 65.3803 96.4599 65.2403 97.9999L66.9203 97.5799Z" fill="white"/>
<path d="M77.2803 96.4601L76.0203 97.0201L74.9003 94.5001L72.6603 95.4801L73.7803 98.0001L72.5203 98.5601L69.8604 92.6801L71.1203 92.1201L72.1003 94.3601L74.3403 93.3801L73.3603 91.1401L74.6203 90.5801L77.2803 96.4601Z" fill="white"/>
<path d="M82.3202 93.3801L81.2002 94.0801L78.2602 89.7401L76.8602 90.7201L76.1602 89.7401L80.0802 87.0801L80.7802 88.0601L79.3802 89.0401L82.3202 93.3801Z" fill="white"/>
<path d="M81.6201 85.96L82.4601 85.12L84.5601 87.36L85.1201 87.92L85.8201 88.62L84.5601 83.16L85.6801 82.04L90.1601 86.52L89.3201 87.36L87.2201 85.12C86.9401 84.84 86.5201 84.42 85.9601 83.72L87.3601 89.32L86.2401 90.44L81.6201 85.96Z" fill="white"/>
<path d="M91.7004 80.4999L92.8204 83.1599L91.9804 84.4199L90.7204 81.1999C90.4404 81.4799 90.0204 81.4799 89.7404 81.4799C89.4604 81.4799 89.0404 81.3399 88.6204 81.0599C88.2004 80.7799 87.9204 80.3599 87.9204 79.7999C87.9204 79.2399 88.0604 78.6799 88.4804 78.1199L89.6004 76.4399L94.9204 80.0799L94.2204 81.1999L92.2604 79.7999L91.7004 80.4999ZM89.7404 78.1199L89.3204 78.6799C89.1804 78.9599 89.0404 79.2399 89.0404 79.5199C89.0404 79.7999 89.1804 79.9399 89.4604 80.0799C89.7404 80.2199 89.8804 80.2199 90.1604 80.2199C90.4404 80.2199 90.5804 79.9399 90.8604 79.6599L91.2804 79.0999L89.7404 78.1199Z" fill="white"/>
<path d="M85.9601 39.6199C85.9601 39.3399 85.9601 39.1999 85.82 38.9199C80.7801 30.2399 71.54 24.9199 61.6 24.9199C51.66 24.9199 42.28 30.2399 37.38 38.9199C37.1 39.3399 37.24 39.8999 37.66 40.1799C38.08 40.4599 38.64 40.3199 38.92 39.8999C43.54 31.7799 52.22 26.7399 61.6 26.7399C70.84 26.7399 79.5201 31.7799 84.2801 39.7599C84.4201 40.0399 84.5601 40.1799 84.84 40.1799C85.12 40.1799 85.2601 40.1799 85.5401 40.0399C85.82 40.0399 85.9601 39.8999 85.9601 39.6199Z" fill="white"/>
<path d="M61.7404 31.9199C54.1804 31.9199 47.3204 35.9799 43.5404 42.4199C43.4004 42.6999 43.4004 42.9799 43.4004 43.2599C43.4004 43.5399 43.6804 43.6799 43.8204 43.8199C43.9604 43.9599 44.2404 43.9599 44.5204 43.9599C44.8004 43.9599 44.9404 43.6799 45.0804 43.5399C48.4404 37.5199 54.8804 33.8799 61.7404 33.8799C68.6004 33.8799 74.9004 37.5199 78.4004 43.5399C78.5404 43.8199 78.6804 43.9599 78.9604 43.9599C79.2404 43.9599 79.3804 43.9599 79.6604 43.8199C79.8004 43.6799 80.0804 43.5399 80.0804 43.2599C80.0804 42.9799 80.0804 42.8399 79.9404 42.5599C76.1604 35.9799 69.1604 31.9199 61.7404 31.9199Z" fill="white"/>
<path d="M73.9201 46.6198C73.9201 46.3398 73.9201 46.1998 73.7801 45.9198C71.2601 41.5798 66.6401 38.7798 61.6001 38.7798C56.5601 38.7798 51.9401 41.5798 49.4201 45.9198C49.1401 46.3398 49.2801 46.8998 49.7001 47.1798C49.8401 47.3198 50.1201 47.3198 50.4001 47.3198C50.6801 47.3198 50.8201 47.0398 50.9601 46.8998C53.0601 43.1198 57.2601 40.7398 61.6001 40.7398C65.9401 40.7398 70.0001 43.1198 72.2401 46.8998C72.3801 47.1798 72.5201 47.3198 72.8001 47.3198C73.0801 47.3198 73.2201 47.3198 73.5001 47.1798C73.7801 47.0398 73.9201 46.8998 73.9201 46.6198Z" fill="white"/>
<path d="M59.6403 50.9601C60.7603 52.0801 62.5803 52.0801 63.7003 50.9601C64.2603 50.4001 64.5403 49.7001 64.5403 49.0001C64.5403 48.3001 64.2603 47.4601 63.7003 46.9001C63.1403 46.3401 62.4403 46.0601 61.7403 46.0601C60.9003 46.0601 60.2003 46.3401 59.7803 46.9001C59.0803 47.4601 58.8003 48.1601 58.8003 49.0001C58.8003 49.7001 59.0803 50.4001 59.6403 50.9601Z" fill="white"/>
<path d="M28.1402 66.6401H32.3402V66.7801L36.1202 73.2201C36.4002 73.6401 36.8202 73.9201 37.2402 73.9201C37.5202 73.9201 37.6602 73.9201 37.9402 73.7801C38.6402 73.3601 38.7802 72.5201 38.3602 71.9601L35.1402 66.5001H35.2802C37.5202 65.8001 39.0602 63.5601 39.0602 61.1801C39.0602 58.1001 36.5402 55.5801 33.4602 55.5801H26.6002C25.9002 55.5801 25.2002 56.1401 25.2002 56.9801V72.6601C25.2002 73.3601 25.7602 74.0601 26.6002 74.0601C27.4402 74.0601 28.0002 73.5001 28.0002 72.6601V66.6401H28.1402ZM28.1402 58.1001H33.7402C35.4202 58.1001 36.6802 59.3601 36.6802 61.0401C36.6802 62.7201 35.4202 63.9801 33.7402 63.9801H28.1402V58.1001Z" fill="white"/>
<path d="M61.7403 55.4399C61.0403 55.4399 60.3403 55.9999 60.3403 56.8399V72.5199C60.3403 73.2199 60.9003 73.9199 61.7403 73.9199C62.5803 73.9199 63.1403 73.3599 63.1403 72.5199V56.8399C63.0003 55.9999 62.4403 55.4399 61.7403 55.4399Z" fill="white"/>
<path d="M54.6 55.4399H45.36C44.66 55.4399 43.96 55.9999 43.96 56.8399V72.5199C43.96 73.2199 44.52 73.9199 45.36 73.9199C46.2 73.9199 46.76 73.3599 46.76 72.5199V66.0799H54.04C54.74 66.0799 55.44 65.5199 55.44 64.6799C55.44 63.8399 54.88 63.2799 54.04 63.2799H46.76V58.0999H54.6C55.3 58.0999 56 57.5399 56 56.6999C56 55.8599 55.44 55.4399 54.6 55.4399Z" fill="white"/>
<path d="M76.02 55.5801H69.58H69.44C68.74 55.5801 68.04 56.1401 68.04 56.8401V72.5201C68.04 73.2201 68.6 73.9201 69.44 73.9201H69.58H76.02C81.06 73.9201 85.12 69.8601 85.12 64.8201C85.12 59.6401 81.06 55.5801 76.02 55.5801ZM76.02 71.1201H70.7V58.2401H76.02C79.52 58.2401 82.46 61.1801 82.46 64.6801C82.46 68.1801 79.52 71.1201 76.02 71.1201Z" fill="white"/>
</svg>
