<svg width="112" height="112" viewBox="0 0 112 112" fill="none" xmlns="http://www.w3.org/2000/svg">
<path d="M56.0001 107.38C84.3765 107.38 107.38 84.3765 107.38 56.0001C107.38 27.6237 84.3765 4.62012 56.0001 4.62012C27.6237 4.62012 4.62012 27.6237 4.62012 56.0001C4.62012 84.3765 27.6237 107.38 56.0001 107.38Z" fill="#7D8A8E"/>
<path d="M55.9999 112C53.3399 112 50.5399 111.86 47.8799 111.44L48.1599 109.34C50.6799 109.76 53.3399 109.9 55.8599 109.9C85.5399 109.9 109.76 85.6799 109.76 55.9999C109.76 30.9399 91.9799 8.8199 67.6199 3.3599L68.1799 1.3999C93.6599 6.9999 112 29.9599 112 55.9999C112 86.9399 86.9399 112 55.9999 112Z" fill="#7D8A8E"/>
<path d="M43.96 110.74C18.48 105.14 0 82.18 0 56C0 25.06 25.06 0 56 0C58.8 0 61.6 0.14 64.26 0.56L63.98 2.66C61.32 2.24 58.66 2.1 56 2.1C26.32 2.1 2.1 26.32 2.1 56C2.1 81.2 19.88 103.32 44.38 108.64L43.96 110.74Z" fill="black"/>
<path d="M12.32 69.3L16.66 66.36C15.68 66.78 15.12 66.92 14.7 67.06L11.9 68.04L11.48 66.92L17.5 64.96L18.06 66.78L13.86 69.72H19.04L19.6 71.54L13.58 73.5L13.16 72.24L16.1 71.26C16.24 71.26 16.38 71.12 16.52 71.12C16.66 71.12 17.22 70.98 17.92 70.7H12.6L12.32 69.3Z" fill="white"/>
<path d="M20.5801 79.66C19.6001 80.22 18.7601 80.36 18.0601 80.22C17.3601 80.08 16.6601 79.52 16.2401 78.68C15.8201 77.84 15.6801 77 15.8201 76.3C16.1001 75.6 16.6601 74.9 17.5001 74.34C18.4801 73.78 19.3201 73.64 20.0201 73.78C20.7201 73.92 21.4201 74.48 21.8401 75.32C22.2601 76.16 22.4001 77 22.2601 77.7C22.1201 78.54 21.5601 79.1 20.5801 79.66ZM18.3401 75.6C17.7801 76.02 17.3601 76.3 17.0801 76.72C16.8001 77.14 16.9401 77.56 17.2201 77.98C17.7801 78.96 18.6201 79.1 19.8801 78.26C21.1401 77.56 21.4201 76.72 21.0001 75.74C20.7201 75.32 20.4401 75.04 19.8801 74.9C19.4601 75.18 18.9001 75.32 18.3401 75.6Z" fill="white"/>
<path d="M23.38 82.04L23.66 82.46C24.22 83.16 24.5 83.72 24.5 84.28C24.5 84.84 24.36 85.26 23.8 85.68C22.82 86.52 21.7 86.24 20.58 84.98L19.46 83.58L24.36 79.52L26.88 82.6L26.04 83.3L24.5 81.2L23.38 82.04ZM21.28 83.86L21.56 84.28C21.84 84.7 22.12 84.84 22.4 84.98C22.68 84.98 22.82 84.98 23.1 84.84C23.38 84.7 23.38 84.42 23.38 84.14C23.38 83.86 23.1 83.58 22.82 83.16L22.54 82.88L21.28 83.86Z" fill="white"/>
<path d="M28.4197 84.1401L29.3997 84.9801L27.4397 87.3601L26.8797 87.9201L26.1797 88.6201L31.4997 86.8001L32.7597 87.7801L28.6997 92.6801L27.7197 91.8401L29.6797 89.4601C29.9597 89.1801 30.3797 88.7601 30.9397 88.0601L25.4797 89.8801L24.2197 88.7601L28.4197 84.1401Z" fill="white"/>
<path d="M35.7002 97.0197L34.5802 96.3197L37.2402 91.6997L35.8402 90.8597L35.4202 91.2797C34.5802 92.5397 33.8802 93.3797 33.4602 93.7997C33.0402 94.2197 32.6202 94.4997 32.3402 94.6397C31.9202 94.7797 31.6402 94.6397 31.2202 94.3597C30.9402 94.2197 30.8002 94.0797 30.6602 93.9397L31.2202 92.9597C31.3602 93.0997 31.5002 93.2397 31.6402 93.2397C31.7802 93.3797 31.9202 93.3797 32.0602 93.2397C32.2002 93.0997 32.4802 92.9597 32.6202 92.6797C32.9002 92.3997 33.3202 91.8397 33.8802 91.1397C34.4402 90.4397 35.0002 89.7397 35.4202 89.1797L38.9202 91.1397L35.7002 97.0197Z" fill="white"/>
<path d="M43.4 97.8601C42.98 99.1201 41.86 99.4001 40.18 98.8401L38.5 98.1401L40.74 92.1201L42 92.5401L41.16 94.7801L41.72 94.9201C42.56 95.2001 43.12 95.6201 43.4 96.0401C43.68 96.4601 43.68 97.3001 43.4 97.8601ZM40.18 97.7201L40.6 97.8601C41.02 98.0001 41.3 98.0001 41.58 98.0001C41.86 98.0001 42 97.7201 42.14 97.4401C42.28 97.1601 42.28 96.8801 42 96.7401C41.86 96.6001 41.58 96.3201 41.02 96.1801L40.74 96.0401L40.18 97.7201Z" fill="white"/>
<path d="M50.5399 101.36L49.2799 101.08L49.6999 98.4201L47.1799 98.0001L46.7599 100.66L45.3599 100.38L46.4799 94.0801L47.8799 94.3601L47.4599 96.8801L49.9799 97.3001L50.3999 94.7801L51.6599 95.0601L50.5399 101.36Z" fill="white"/>
<path d="M58.0998 99.6797C58.0998 100.38 57.9598 100.8 57.5398 101.22C57.1198 101.64 56.4198 101.78 55.5798 101.78H53.8998L53.7598 95.3397H55.1598V97.7197H55.5798C56.4198 97.7197 56.9798 97.8597 57.5398 98.1397C57.8198 98.5597 58.0998 98.9797 58.0998 99.6797ZM55.1598 100.52H55.5798C55.9998 100.52 56.2798 100.38 56.5598 100.24C56.6998 100.1 56.8398 99.8197 56.8398 99.5397C56.8398 99.2597 56.6998 98.9797 56.5598 98.8397C56.4198 98.6997 55.9998 98.6997 55.4398 98.6997H55.1598V100.52ZM60.3398 101.5H58.9398L58.7998 95.1997H60.1998L60.3398 101.5Z" fill="white"/>
<path d="M62.02 94.9198L63.14 94.6398L63.84 97.5798L63.98 98.4198L64.12 99.3998L65.94 94.0798L67.48 93.6598L68.88 99.8198L67.76 100.1L67.2 97.1598C67.06 96.7398 67.06 96.1798 66.92 95.3398L65.1 100.8L63.56 101.22L62.02 94.9198ZM66.5 91.8398C66.5 92.3998 66.5 92.8198 66.22 93.0998C65.94 93.3798 65.52 93.6598 64.82 93.7998C64.12 93.9398 63.56 93.9398 63.28 93.7998C62.86 93.6598 62.58 93.2398 62.44 92.6798L63.56 92.3998C63.7 92.6798 63.7 92.8198 63.98 92.9598C64.12 93.0998 64.4 93.0998 64.68 92.9598C64.96 92.9598 65.1 92.8198 65.24 92.6798C65.38 92.5398 65.38 92.2598 65.38 91.9798L66.5 91.8398Z" fill="white"/>
<path d="M75.1801 91.42C74.7601 91.7 74.4801 91.98 74.3401 92.54C74.3401 92.96 74.3401 93.52 74.7601 94.22C75.4601 95.48 76.1601 95.9 77.1401 95.34C77.5601 95.2 77.9801 94.78 78.4001 94.22L78.9601 95.2C78.5401 95.62 78.1201 96.04 77.5601 96.32C76.7201 96.74 76.0201 96.88 75.3201 96.6C74.6201 96.32 74.0601 95.76 73.5001 94.78C73.2201 94.22 73.0801 93.66 73.0801 93.1C73.0801 92.54 73.2201 91.98 73.5001 91.56C73.7801 91.14 74.2001 90.72 74.7601 90.44C75.3201 90.16 75.8801 90.02 76.5801 90.02L76.7201 91.14C76.4401 91.14 76.1601 91.14 75.8801 91.14C75.6001 91.28 75.4601 91.28 75.1801 91.42Z" fill="white"/>
<path d="M84.4202 91.8397L81.4802 93.9397L77.7002 88.7597L80.6402 86.6597L81.3402 87.4997L79.5202 88.8997L80.3602 90.0197L82.0402 88.7597L82.6002 89.5997L80.9202 90.8597L81.9002 92.2597L83.7202 90.8597L84.4202 91.8397Z" fill="white"/>
<path d="M86.66 83.72C87.08 84.14 87.36 84.7 87.36 85.26C87.36 85.82 86.94 86.38 86.38 86.94L85.96 87.36L87.5 89.04L86.52 90.02L82.04 85.4L83.44 84C84 83.44 84.56 83.16 85.12 83.16C85.68 83.02 86.1 83.3 86.66 83.72ZM85.12 86.66L85.4 86.38C85.68 86.1 85.82 85.82 85.96 85.54C85.96 85.2599 85.96 84.9799 85.68 84.8399C85.4 84.5599 85.26 84.56 84.98 84.56C84.7 84.56 84.56 84.7 84.28 84.98L83.86 85.4L85.12 86.66Z" fill="white"/>
<path d="M86.2402 81.0598L87.3602 79.5198C87.9202 78.8198 88.3402 78.3998 88.9002 78.1198C89.4602 77.8398 89.7402 77.9798 90.3002 78.3998C90.5802 78.6798 90.8602 78.8198 90.8602 79.2398C91.0002 79.5198 90.8602 79.7998 90.8602 80.0798C91.1402 79.7998 91.4202 79.6598 91.8402 79.6598C92.1202 79.6598 92.4002 79.7998 92.8202 80.0798C93.2402 80.3598 93.5202 80.9198 93.5202 81.3398C93.5202 81.8998 93.3802 82.4598 92.9602 83.0198L91.5602 84.9798L86.2402 81.0598ZM89.1802 81.4798L89.6002 80.7798C89.8802 80.4998 89.8802 80.2198 89.8802 80.0798C89.8802 79.9398 89.7402 79.6598 89.6002 79.5198C89.4602 79.3798 89.1802 79.3798 89.0402 79.3798C88.9002 79.5198 88.6202 79.6598 88.3402 79.9398L87.9202 80.4998L89.1802 81.4798ZM90.0202 82.1798L91.4202 83.1598L91.9802 82.4598C92.2602 82.1798 92.2602 81.8998 92.2602 81.6198C92.2602 81.3398 92.1202 81.1998 91.8402 81.0598C91.4202 80.7798 91.0002 80.9198 90.5802 81.4798L90.0202 82.1798Z" fill="white"/>
<path d="M90.02 75.8798L90.58 74.7598L93.38 76.1598L94.08 76.5798L94.92 76.9998L91.84 72.2398L92.54 70.8398L98.28 73.6398L97.72 74.7598L94.92 73.3598C94.5 73.2198 94.08 72.9398 93.38 72.5198L96.46 77.2798L95.76 78.6798L90.02 75.8798Z" fill="white"/>
<path d="M94.92 66.4999C94.78 66.9199 94.92 67.4799 95.2 67.7599C95.48 68.1799 95.9 68.4599 96.6 68.5999C98 69.0199 98.84 68.7399 99.12 67.6199C99.26 67.1999 99.26 66.6399 99.26 65.9399L100.38 66.2199C100.38 66.7799 100.38 67.3399 100.24 68.0399C99.96 68.8799 99.54 69.5799 98.84 69.8599C98.14 70.1399 97.3 70.1399 96.32 69.8599C95.62 69.7199 95.2 69.4399 94.78 69.0199C94.36 68.5999 94.08 68.1799 93.94 67.7599C93.8 67.1999 93.8 66.6399 93.94 66.0799C94.08 65.5199 94.36 64.9599 94.92 64.3999L95.9 65.0999C95.76 65.2399 95.62 65.5199 95.48 65.6599C95.06 66.0799 95.06 66.2199 94.92 66.4999Z" fill="white"/>
<path d="M41.3004 50.8196H29.4004C28.8404 50.8196 28.4204 50.3996 28.4204 49.8396C28.4204 49.2796 28.8404 48.8596 29.4004 48.8596H40.3204V40.5996C40.3204 40.0396 40.7404 39.6196 41.3004 39.6196C41.8604 39.6196 42.2804 40.0396 42.2804 40.5996V49.8396C42.2804 50.3996 41.8604 50.8196 41.3004 50.8196Z" fill="white"/>
<path d="M83.02 66.2198H75.46C74.9 66.2198 74.48 65.7998 74.48 65.2398C74.48 64.6798 74.9 64.2598 75.46 64.2598H83.02C83.58 64.2598 84 64.6798 84 65.2398C84 65.7998 83.58 66.2198 83.02 66.2198Z" fill="white"/>
<path d="M31.7802 66.2198H25.2002C24.6402 66.2198 24.2202 65.7998 24.2202 65.2398V49.8398C24.2202 49.6998 24.2202 49.5598 24.3602 49.4198L30.6602 36.1198C30.8002 35.8398 31.2202 35.5598 31.5002 35.5598H40.3202V31.7798C40.3202 31.2198 40.7402 30.7998 41.3002 30.7998H83.1602C83.7202 30.7998 84.1402 31.2198 84.1402 31.7798C84.1402 32.3398 83.7202 32.7598 83.1602 32.7598H42.2802V36.3998C42.2802 36.9598 41.8602 37.3798 41.3002 37.3798H32.0602L26.1802 49.9798V64.2598H31.7802C32.3402 64.2598 32.7602 64.6798 32.7602 65.2398C32.7602 65.7998 32.3402 66.2198 31.7802 66.2198Z" fill="white"/>
<path d="M65.1002 66.2198H42.1402C41.5802 66.2198 41.1602 65.7998 41.1602 65.2398C41.1602 64.6798 41.5802 64.2598 42.1402 64.2598H64.9602C65.5202 64.2598 65.9401 64.6798 65.9401 65.2398C65.9401 65.7998 65.6602 66.2198 65.1002 66.2198Z" fill="white"/>
<path d="M70.2801 71.3996C66.9201 71.3996 64.1201 68.5996 64.1201 65.2396C64.1201 61.8796 66.9201 59.0796 70.2801 59.0796C73.6401 59.0796 76.4401 61.8796 76.4401 65.2396C76.4401 68.5996 73.6401 71.3996 70.2801 71.3996ZM70.2801 61.0396C67.9001 61.0396 66.0801 62.9996 66.0801 65.2396C66.0801 67.6196 68.0401 69.4396 70.2801 69.4396C72.5201 69.4396 74.4801 67.4796 74.4801 65.2396C74.4801 62.8596 72.6601 61.0396 70.2801 61.0396Z" fill="white"/>
<path d="M36.9603 71.3996C33.6003 71.3996 30.8003 68.5996 30.8003 65.2396C30.8003 61.8796 33.6003 59.0796 36.9603 59.0796C40.3203 59.0796 43.1203 61.8796 43.1203 65.2396C43.1203 68.5996 40.4603 71.3996 36.9603 71.3996ZM36.9603 61.0396C34.5803 61.0396 32.7603 62.9996 32.7603 65.2396C32.7603 67.6196 34.7203 69.4396 36.9603 69.4396C39.2003 69.4396 41.1603 67.4796 41.1603 65.2396C41.1603 62.8596 39.3403 61.0396 36.9603 61.0396Z" fill="white"/>
<path d="M90.8601 49.2798H75.0401C74.4801 49.2798 74.0601 48.8598 74.0601 48.2998C74.0601 47.7398 74.4801 47.3198 75.0401 47.3198H90.8601C91.4201 47.3198 91.8401 47.7398 91.8401 48.2998C91.8401 48.8598 91.4201 49.2798 90.8601 49.2798Z" fill="white"/>
<path d="M86.9401 41.44H75.0401C74.4801 41.44 74.0601 41.02 74.0601 40.46C74.0601 39.9 74.4801 39.48 75.0401 39.48H86.9401C87.5001 39.48 87.9201 39.9 87.9201 40.46C87.9201 41.02 87.5001 41.44 86.9401 41.44Z" fill="white"/>
<path d="M94.7801 57.1197H75.0401C74.4801 57.1197 74.0601 56.6997 74.0601 56.1397C74.0601 55.5797 74.4801 55.1597 75.0401 55.1597H94.7801C95.34 55.1597 95.7601 55.5797 95.7601 56.1397C95.7601 56.6997 95.34 57.1197 94.7801 57.1197Z" fill="white"/>
<path d="M49.1399 58.5199C48.2999 58.5199 47.4599 58.2399 46.8999 57.5399C46.3399 56.9799 45.9199 56.1399 45.9199 55.2999C45.9199 54.4599 46.1999 53.6199 46.8999 53.0599L58.0999 41.8599C57.8199 40.1799 58.3799 38.3599 59.6399 37.0999C61.0399 35.6999 63.1399 35.1399 65.0999 35.6999C65.3799 35.8399 65.5199 35.9799 65.5199 36.2599C65.5199 36.5399 65.5199 36.8199 65.3799 36.9599L63.2799 39.0599L63.6999 40.7399L65.3799 41.1599L67.4799 39.0599C67.6199 38.9199 67.8999 38.7799 68.1799 38.9199C68.4599 38.9199 68.5999 39.1999 68.7399 39.3399C69.2999 41.2999 68.7399 43.3999 67.3399 44.7999C66.0799 46.0599 64.2599 46.6199 62.5799 46.3399L51.3799 57.5399C50.6799 58.0999 49.8399 58.5199 49.1399 58.5199ZM63.2799 36.9599C62.2999 36.9599 61.3199 37.3799 60.4799 38.0799C59.4999 39.0599 59.0799 40.4599 59.3599 41.8599C59.3599 42.1399 59.3599 42.2799 59.2199 42.5599L47.7399 54.0399C47.4599 54.3199 47.1799 54.7399 47.1799 55.2999C47.1799 55.7199 47.3199 56.2799 47.7399 56.5599C48.4399 57.2599 49.5599 57.2599 50.2599 56.5599L61.7399 45.0799C61.8799 44.9399 62.1599 44.7999 62.4399 44.9399C63.8399 45.2199 65.2399 44.9399 66.2199 43.8199C66.9199 43.1199 67.3399 42.1399 67.3399 41.0199L65.9399 42.4199C65.7999 42.5599 65.5199 42.6999 65.2399 42.5599L62.8599 41.9999C62.5799 41.9999 62.4399 41.7199 62.2999 41.4399L61.5999 38.9199C61.5999 38.6399 61.5999 38.3599 61.7399 38.2199L63.2799 36.9599Z" fill="white"/>
<path d="M64.6799 58.3799C63.8399 58.3799 62.9999 58.0999 62.4399 57.3999L58.5199 53.4799C58.3799 53.3399 58.3799 53.1999 58.3799 52.9199C58.3799 52.6399 58.5199 52.4999 58.5199 52.3599L62.0199 48.8599C62.2999 48.5799 62.7199 48.5799 62.9999 48.8599L66.9199 52.7799C67.4799 53.3399 67.8999 54.1799 67.8999 55.0199C67.8999 55.8599 67.6199 56.6999 66.9199 57.2599C66.2199 57.8199 65.5199 58.3799 64.6799 58.3799ZM60.0599 53.1999L63.4199 56.5599C64.1199 57.2599 65.2399 57.2599 65.9399 56.5599C66.2199 56.2799 66.4999 55.7199 66.4999 55.2999C66.4999 54.8799 66.3599 54.3199 65.9399 54.0399L62.5799 50.6799L60.0599 53.1999Z" fill="white"/>
<path d="M55.0202 46.34C54.8802 46.34 54.6002 46.34 54.4602 46.2L49.7002 41.44C49.4202 41.16 49.4202 40.74 49.7002 40.46C49.9802 40.18 50.4002 40.18 50.6802 40.46L55.4402 45.22C55.7202 45.5 55.7202 45.92 55.4402 46.2C55.4402 46.34 55.1602 46.34 55.0202 46.34Z" fill="white"/>
<path d="M60.76 52.2199C60.62 52.2199 60.34 52.2199 60.2 52.0799L57.96 49.8399C57.68 49.5599 57.68 49.1399 57.96 48.8599C58.24 48.5799 58.66 48.5799 58.94 48.8599L61.18 51.0999C61.46 51.3799 61.46 51.7999 61.18 52.0799C61.18 52.0799 61.04 52.2199 60.76 52.2199Z" fill="white"/>
<path d="M48.5801 42.5599C48.5801 42.5599 48.4401 42.5599 48.5801 42.5599C48.3001 42.5599 48.1601 42.4199 48.0201 42.2799L45.9201 38.7799C45.7801 38.4999 45.7801 38.0799 46.0601 37.9399L47.6001 36.3999C47.8801 36.1199 48.1601 36.1199 48.4401 36.2599L51.9401 38.3599C52.0801 38.4999 52.2201 38.6399 52.2201 38.9199C52.2201 39.1999 52.2201 39.3399 52.0801 39.4799L49.0001 42.2799C48.8601 42.4199 48.7201 42.5599 48.5801 42.5599ZM47.3201 38.3599L48.7201 40.7399L50.4001 39.0599L48.0201 37.6599L47.3201 38.3599Z" fill="white"/>
</svg>
