<svg width="113" height="113" viewBox="0 0 113 113" fill="none" xmlns="http://www.w3.org/2000/svg">
<path d="M56.48 107.86C84.8564 107.86 107.86 84.856 107.86 56.4796C107.86 28.1032 84.8564 5.09961 56.48 5.09961C28.1037 5.09961 5.10005 28.1032 5.10005 56.4796C5.10005 84.856 28.1037 107.86 56.48 107.86Z" fill="url(#paint0_linear)"/>
<path fill-rule="evenodd" clip-rule="evenodd" d="M68.7472 1.83496C93.8589 7.39949 112.55 29.7986 112.55 56.4801C112.55 87.44 87.4399 112.55 56.48 112.55C53.7869 112.55 51.0645 112.409 48.4674 111.976L48.8127 109.904C51.2556 110.312 53.8532 110.45 56.48 110.45C86.2801 110.45 110.45 86.2802 110.45 56.4801C110.45 30.8016 92.4612 9.2407 68.2929 3.88523L68.7472 1.83496Z" fill="#006FB6"/>
<path fill-rule="evenodd" clip-rule="evenodd" d="M0.550049 56.4798C0.550049 25.5199 25.5201 0.549805 56.48 0.549805C59.3144 0.549805 62.0326 0.691406 64.7638 1.12265L64.4363 3.19696C61.8475 2.7882 59.2457 2.6498 56.48 2.6498C26.6799 2.6498 2.65005 26.6797 2.65005 56.4798C2.65005 82.297 20.7768 103.856 44.9416 109.073L44.4984 111.126C19.3833 105.704 0.550049 83.3026 0.550049 56.4798Z" fill="black"/>
<path d="M20.36 80.2799L18.4 81.6799L17.7 80.5599L23.02 76.9199L24.14 78.4599C24.56 79.1599 24.84 79.8599 24.84 80.2799C24.84 80.8399 24.56 81.2599 24 81.5399C23.72 81.8199 23.3 81.8199 23.02 81.8199C22.6 81.8199 22.32 81.6799 21.9 81.5399C21.2 83.0799 20.78 84.1999 20.64 84.6199L19.8 83.3599L20.92 80.6999L20.36 80.2799ZM21.34 79.5799L21.62 79.9999C21.9 80.4199 22.04 80.5599 22.32 80.6999C22.6 80.8399 22.74 80.6999 23.02 80.5599C23.3 80.4199 23.44 80.1399 23.44 79.9999C23.44 79.7199 23.3 79.4399 23.02 79.1599L22.74 78.8799L21.34 79.5799Z" fill="white"/>
<path d="M23.16 87.6999L22.18 86.7199L26.8 82.3799L29.32 85.0399L28.48 85.7399L26.94 84.0599L25.82 85.1799L27.36 86.7199L26.52 87.4199L24.98 86.0199L23.16 87.6999Z" fill="white"/>
<path d="M27.08 91.4801L31.14 86.5801L32.12 87.4201L28.06 92.3201L27.08 91.4801Z" fill="white"/>
<path d="M37.16 94.2793C36.6 95.1193 35.9 95.6793 35.2 95.8193C34.36 95.9593 33.52 95.8193 32.54 95.2593L31 94.2793L34.22 88.8193L35.9 89.7993C36.74 90.3593 37.3 90.9193 37.58 91.7593C37.86 92.5993 37.58 93.4393 37.16 94.2793ZM35.9 93.5793C36.6 92.4593 36.46 91.4793 35.34 90.9193L34.78 90.6393L32.68 94.1393L33.24 94.4193C34.22 95.1193 35.2 94.8393 35.9 93.5793Z" fill="white"/>
<path d="M38.56 96.5191L38.98 95.5391L41.08 96.3791L40.66 97.3591L38.56 96.5191Z" fill="white"/>
<path d="M48.36 94.9794L48.08 96.0994L45.56 95.3994L44.16 100.439L42.9 100.019L44.58 93.8594L48.36 94.9794Z" fill="white"/>
<path d="M53.4 102.119L52.98 100.579L50.6 100.299L50.04 101.699L48.64 101.559L51.58 95.3994L53.26 95.5394L54.8 102.119H53.4ZM52.84 99.3194C52.56 97.9194 52.42 97.0794 52.42 96.9394C52.42 96.7994 52.42 96.6594 52.28 96.5194C52.14 96.9394 51.72 97.7794 51.16 99.1794L52.84 99.3194Z" fill="white"/>
<path d="M61.66 97.4997C61.66 98.1997 61.52 98.7597 61.1 99.1797C60.68 99.5997 60.12 99.7397 59.28 99.8797H58.72L58.86 102.12L57.46 102.26L57.18 95.8197L59.28 95.6797C60.12 95.6797 60.68 95.8197 61.1 96.0997C61.38 96.3797 61.66 96.9397 61.66 97.4997ZM58.72 98.7597H59.14C59.56 98.7597 59.84 98.6197 60.12 98.4797C60.26 98.3397 60.4 98.0597 60.4 97.7797C60.4 97.4997 60.26 97.2197 60.12 97.0797C59.98 96.9397 59.7 96.9397 59.28 96.9397H58.72V98.7597Z" fill="white"/>
<path d="M68.94 100.44L68.1 99.0403L65.86 99.6003L65.72 101.14L64.32 101.42L65.02 94.7003L66.56 94.2803L70.2 100.02L68.94 100.44ZM67.54 98.0603C66.84 96.8003 66.42 96.1003 66.28 95.9603C66.14 95.8203 66.14 95.6803 66 95.5403C66 95.9603 66 96.9403 65.86 98.4803L67.54 98.0603Z" fill="white"/>
<path d="M77.7601 97.0802L76.5001 97.6402L75.3801 95.1202L73.1401 96.1002L74.2601 98.6202L73.0001 99.1802L70.3401 93.3002L71.6001 92.7402L72.5801 94.9802L74.8201 94.0002L73.8401 91.7602L75.1001 91.2002L77.7601 97.0802Z" fill="white"/>
<path d="M82.8 93.8586L81.68 94.5586L78.74 90.2186L77.34 91.1986L76.64 90.2186L80.56 87.5586L81.26 88.5386L79.86 89.5186L82.8 93.8586Z" fill="white"/>
<path d="M82.1 86.4395L82.94 85.5995L85.04 87.8395L85.6 88.3995L86.3 89.0995L85.04 83.6395L86.16 82.5195L90.64 86.9995L89.8 87.8395L87.7 85.5995C87.42 85.3195 87 84.8995 86.44 84.1995L87.84 89.7995L86.58 90.9195L82.1 86.4395Z" fill="white"/>
<path d="M92.18 80.9786L93.3 83.6386L92.46 84.8986L91.2 81.8186C90.92 82.0986 90.5 82.0986 90.22 82.0986C89.94 82.0986 89.52 81.9586 89.1 81.6786C88.68 81.3986 88.4 80.9786 88.4 80.4186C88.4 79.8586 88.54 79.2986 88.96 78.7386L90.08 77.0586L95.4 80.6986L94.7 81.8186L92.74 80.4186L92.18 80.9786ZM90.22 78.5986L89.8 79.1586C89.66 79.4386 89.52 79.7186 89.52 79.9986C89.52 80.2786 89.66 80.4186 89.94 80.5586C90.22 80.6986 90.36 80.6986 90.64 80.6986C90.92 80.6986 91.06 80.4186 91.34 80.1386L91.76 79.5786L90.22 78.5986Z" fill="white"/>
<path d="M86.5801 40.1004C86.5801 39.8204 86.5801 39.6804 86.4401 39.4004C81.4001 30.7204 72.1601 25.4004 62.2201 25.4004C52.2801 25.4004 42.9001 30.7204 38.0001 39.4004C37.7201 39.8204 37.8601 40.3804 38.2801 40.6604C38.7001 40.9404 39.2601 40.8004 39.5401 40.3804C44.1601 32.2604 52.8401 27.2204 62.2201 27.2204C71.4601 27.2204 80.1401 32.2604 84.9001 40.2404C85.0401 40.5204 85.1801 40.6604 85.4601 40.6604C85.7401 40.6604 85.8801 40.6604 86.1601 40.5204C86.3001 40.5204 86.4401 40.3804 86.5801 40.1004Z" fill="white"/>
<path d="M62.22 32.4004C54.66 32.4004 47.8 36.4604 44.02 42.9004C43.88 43.1804 43.88 43.3204 43.88 43.6004C43.88 43.8804 44.16 44.0204 44.3 44.1604C44.44 44.3004 44.72 44.3004 45 44.3004C45.28 44.3004 45.42 44.0204 45.56 43.8804C48.92 37.8604 55.36 34.2204 62.22 34.2204C69.08 34.2204 75.38 37.8604 78.88 43.8804C79.02 44.1604 79.16 44.3004 79.44 44.3004C79.72 44.3004 79.86 44.3004 80.14 44.1604C80.28 44.0204 80.56 43.8804 80.56 43.6004C80.56 43.3204 80.56 43.1804 80.42 42.9004C76.64 36.4604 69.64 32.5404 62.22 32.4004Z" fill="white"/>
<path d="M74.5401 47.1007C74.5401 46.8207 74.54 46.6807 74.4 46.4007C71.88 42.0607 67.26 39.2607 62.22 39.2607C57.18 39.2607 52.5601 42.0607 50.0401 46.4007C49.7601 46.8207 49.9 47.3807 50.32 47.6607C50.46 47.8007 50.74 47.8007 51.02 47.8007C51.3 47.8007 51.4401 47.5207 51.5801 47.3807C53.68 43.6007 57.88 41.2207 62.22 41.2207C66.56 41.2207 70.6201 43.6007 72.8601 47.3807C73.0001 47.6607 73.14 47.8007 73.42 47.8007C73.7 47.8007 73.84 47.8007 74.12 47.6607C74.26 47.6607 74.4001 47.3807 74.5401 47.1007Z" fill="white"/>
<path d="M60.12 51.44C61.24 52.56 63.06 52.56 64.18 51.44C64.74 50.88 65.02 50.18 65.02 49.48C65.02 48.78 64.74 47.94 64.18 47.38C63.62 46.82 62.92 46.54 62.22 46.54C61.38 46.54 60.68 46.82 60.26 47.38C59.7 47.94 59.42 48.64 59.42 49.34C59.28 50.18 59.56 50.88 60.12 51.44Z" fill="white"/>
<path d="M28.7601 67.1205H32.9601V67.2605L36.7401 73.7005C37.0201 74.1205 37.4401 74.4005 37.8601 74.4005C38.1401 74.4005 38.2801 74.4005 38.5601 74.2605C39.2601 73.8405 39.4001 73.0005 38.9801 72.4405L35.7601 66.9805H35.9001C38.1401 66.2805 39.6801 64.0405 39.6801 61.6605C39.6801 58.5805 37.1601 56.0605 34.0801 56.0605H27.2201C26.5201 56.0605 25.8201 56.6205 25.8201 57.4605V73.1405C25.8201 73.8405 26.3801 74.5405 27.2201 74.5405C28.0601 74.5405 28.6201 73.9805 28.6201 73.1405V67.1205H28.7601ZM28.7601 58.5805H34.3601C36.0401 58.5805 37.3001 59.8405 37.3001 61.5205C37.3001 63.2005 36.0401 64.4605 34.3601 64.4605H28.7601V58.5805Z" fill="white"/>
<path d="M62.2201 55.9199C61.5201 55.9199 60.8201 56.4799 60.8201 57.3199V72.9999C60.8201 73.6999 61.3801 74.3999 62.2201 74.3999C63.0601 74.3999 63.6201 73.8399 63.6201 72.9999V57.3199C63.4801 56.6199 62.9201 55.9199 62.2201 55.9199Z" fill="white"/>
<path d="M55.08 55.9199H45.98C45.28 55.9199 44.58 56.4799 44.58 57.3199V72.9999C44.58 73.6999 45.14 74.3999 45.98 74.3999C46.82 74.3999 47.38 73.8399 47.38 72.9999V66.5599H54.66C55.36 66.5599 56.06 65.9999 56.06 65.1599C56.06 64.3199 55.5 63.7599 54.66 63.7599H47.38V58.5799H55.22C55.92 58.5799 56.62 58.0199 56.62 57.1799C56.62 56.3399 55.92 55.9199 55.08 55.9199Z" fill="white"/>
<path d="M76.5001 56.0605H70.0601H69.92C69.22 56.0605 68.5201 56.6205 68.5201 57.3205V73.0005C68.5201 73.7005 69.08 74.4005 69.92 74.4005H70.0601H76.5001C81.54 74.4005 85.6 70.3405 85.6 65.3005C85.6 60.1205 81.54 56.0605 76.5001 56.0605ZM76.5001 71.6005H71.1801V58.7205H76.5001C80 58.7205 82.9401 61.6605 82.9401 65.1605C82.9401 68.6605 80.14 71.6005 76.5001 71.6005Z" fill="white"/>
<defs>
<linearGradient id="paint0_linear" x1="5.10243" y1="56.5072" x2="107.913" y2="56.5072" gradientUnits="userSpaceOnUse">
<stop/>
<stop offset="0.2356" stop-color="#070D10"/>
<stop offset="0.4558" stop-color="#17272E"/>
<stop offset="0.6698" stop-color="#223E4A"/>
<stop offset="0.8788" stop-color="#2B5262"/>
<stop offset="0.9835" stop-color="#2E5C6F"/>
</linearGradient>
</defs>
</svg>
