<svg width="113" height="113" viewBox="0 0 113 113" fill="none" xmlns="http://www.w3.org/2000/svg">
<path d="M56.48 107.86C84.8564 107.86 107.86 84.856 107.86 56.4796C107.86 28.1032 84.8564 5.09961 56.48 5.09961C28.1037 5.09961 5.10005 28.1032 5.10005 56.4796C5.10005 84.856 28.1037 107.86 56.48 107.86Z" fill="url(#paint0_linear)"/>
<path fill-rule="evenodd" clip-rule="evenodd" d="M68.7472 1.83496C93.8589 7.39949 112.55 29.7986 112.55 56.4801C112.55 87.44 87.4399 112.55 56.48 112.55C53.7869 112.55 51.0645 112.409 48.4674 111.976L48.8127 109.904C51.2556 110.312 53.8532 110.45 56.48 110.45C86.2801 110.45 110.45 86.2802 110.45 56.4801C110.45 30.8016 92.4612 9.2407 68.2929 3.88523L68.7472 1.83496Z" fill="#006FB6"/>
<path fill-rule="evenodd" clip-rule="evenodd" d="M0.550049 56.4798C0.550049 25.5199 25.5201 0.549805 56.48 0.549805C59.3144 0.549805 62.0326 0.691406 64.7638 1.12265L64.4363 3.19696C61.8475 2.7882 59.2457 2.6498 56.48 2.6498C26.6799 2.6498 2.65005 26.6797 2.65005 56.4798C2.65005 82.297 20.7768 103.856 44.9416 109.073L44.4984 111.126C19.3833 105.704 0.550049 83.3026 0.550049 56.4798Z" fill="black"/>
<path d="M12.8001 69.7798L17.1401 66.8398C16.1601 67.2598 15.6001 67.3998 15.1801 67.5398L12.3801 68.3798L11.9601 67.2598L17.9801 65.2998L18.5401 67.1198L14.3401 70.0598H19.5201L20.0801 71.8798L14.0601 73.8398L13.7801 72.5798L16.7201 71.5998C16.8601 71.5998 17.0001 71.4598 17.1401 71.4598C17.2801 71.4598 17.8401 71.3198 18.5401 71.0398H13.2201L12.8001 69.7798Z" fill="white"/>
<path d="M21.2 80.1405C20.22 80.7005 19.3801 80.8405 18.6801 80.7005C17.9801 80.5605 17.2801 80.0005 16.8601 79.1605C16.4401 78.3205 16.3001 77.4805 16.4401 76.7805C16.7201 76.0805 17.2801 75.3805 18.1201 74.8205C19.1001 74.2605 19.94 74.1205 20.64 74.2605C21.34 74.4005 22.0401 74.9605 22.4601 75.8005C22.8801 76.6405 23.0201 77.4805 22.8801 78.1805C22.6001 79.0205 22.04 79.5805 21.2 80.1405ZM18.8201 76.0805C18.2601 76.5005 17.8401 76.7805 17.5601 77.2005C17.2801 77.6205 17.4201 78.0405 17.7001 78.4605C18.2601 79.4405 19.1001 79.5805 20.3601 78.7405C21.6201 78.0405 21.9001 77.2005 21.4801 76.2205C21.2001 75.8005 20.9201 75.5205 20.3601 75.3805C19.9401 75.6605 19.3801 75.8005 18.8201 76.0805Z" fill="white"/>
<path d="M24.0001 82.52L24.2801 82.94C24.8401 83.64 25.1201 84.2 25.1201 84.76C25.1201 85.32 24.9801 85.74 24.4201 86.16C23.4401 87 22.3201 86.72 21.2001 85.46L20.0801 84.06L24.9801 80L27.5001 83.08L26.6601 83.78L24.9801 81.68L24.0001 82.52ZM21.7601 84.34L22.0401 84.76C22.3201 85.18 22.6001 85.32 22.8801 85.46C23.1601 85.46 23.3001 85.46 23.5801 85.32C23.8601 85.18 23.8601 84.9 23.8601 84.62C23.8601 84.34 23.5801 84.06 23.3001 83.64L23.0201 83.36L21.7601 84.34Z" fill="white"/>
<path d="M28.9 84.6191L29.8801 85.4591L27.9201 87.8391L27.3601 88.3991L26.6601 89.0991L31.9801 87.2791L33.2401 88.2591L29.1801 93.1591L28.2 92.3191L30.1601 89.9391C30.4401 89.6591 30.8601 89.2391 31.4201 88.5391L25.9601 90.3591L24.7001 89.2391L28.9 84.6191Z" fill="white"/>
<path d="M36.18 97.5002L35.06 96.8002L37.58 92.1802L36.18 91.3402L35.76 91.7602C34.92 93.0202 34.22 93.8602 33.8 94.2802C33.38 94.7002 32.96 94.9802 32.68 95.1202C32.26 95.2602 31.98 95.1202 31.56 94.8402C31.28 94.7002 31.14 94.5602 31 94.4202L31.56 93.4402C31.7 93.5802 31.84 93.7202 31.98 93.7202C32.12 93.8602 32.26 93.8602 32.4 93.7202C32.54 93.5802 32.82 93.4402 32.96 93.1602C33.24 92.8802 33.66 92.3202 34.22 91.6202C34.78 90.9202 35.34 90.2202 35.76 89.6602L39.26 91.6202L36.18 97.5002Z" fill="white"/>
<path d="M44.02 98.3396C43.6 99.5996 42.48 99.8796 40.8 99.3196L39.12 98.6196L41.36 92.5996L42.62 93.0196L41.78 95.2596L42.34 95.3996C43.18 95.6796 43.74 96.0996 44.02 96.5196C44.3 96.9396 44.16 97.7796 44.02 98.3396ZM40.66 98.1996L41.08 98.3396C41.5 98.4796 41.78 98.4796 42.06 98.4796C42.34 98.4796 42.48 98.1996 42.62 97.9196C42.76 97.6396 42.76 97.3596 42.48 97.2196C42.34 97.0796 42.06 96.7996 41.5 96.6596L41.22 96.5196L40.66 98.1996Z" fill="white"/>
<path d="M51.0201 101.841L49.7601 101.561L50.1801 98.9006L47.6601 98.4806L47.2401 101.141L45.8401 100.861L46.9601 94.5605L48.3601 94.8406L47.9401 97.3605L50.4601 97.7806L50.8801 95.2605L52.1401 95.5406L51.0201 101.841Z" fill="white"/>
<path d="M58.58 100.16C58.58 100.86 58.44 101.28 58.02 101.7C57.6 102.12 56.9 102.26 56.0601 102.26H54.38L54.2401 95.8197H55.6401V98.1997H56.0601C56.9 98.1997 57.46 98.3397 58.02 98.6197C58.3 99.0397 58.58 99.4597 58.58 100.16ZM55.6401 101H56.0601C56.48 101 56.7601 100.86 57.0401 100.72C57.1801 100.58 57.32 100.3 57.32 100.02C57.32 99.7397 57.1801 99.4597 57.0401 99.3197C56.9001 99.1797 56.48 99.1797 55.92 99.1797H55.6401V101ZM60.82 102.12H59.42L59.28 95.6797H60.68L60.82 102.12Z" fill="white"/>
<path d="M62.5 95.3993L63.62 95.1193L64.32 98.0593L64.46 98.8993L64.6 99.8793L66.42 94.5593L67.96 94.1393L69.36 100.299L68.38 100.579L67.68 97.6393C67.54 97.2193 67.54 96.6593 67.4 95.8193L65.58 101.279L64.04 101.699L62.5 95.3993ZM66.98 92.3193C66.98 92.8793 66.98 93.2993 66.7 93.5793C66.42 93.8593 66 94.1393 65.3 94.2793C64.6 94.4193 64.04 94.4193 63.76 94.2793C63.34 94.1393 63.06 93.7193 62.92 93.1593L64.04 92.8793C64.18 93.1593 64.18 93.2993 64.46 93.4393C64.6 93.5793 64.88 93.5793 65.16 93.4393C65.44 93.4393 65.58 93.2993 65.72 93.1593C65.86 93.0193 65.86 92.7393 65.86 92.4593L66.98 92.3193Z" fill="white"/>
<path d="M75.66 91.9C75.24 92.18 74.96 92.46 74.82 93.02C74.82 93.44 74.82 94 75.24 94.7C75.94 95.96 76.64 96.38 77.62 95.82C78.04 95.68 78.46 95.26 78.88 94.7L79.44 95.68C79.02 96.1 78.6 96.52 78.04 96.8C77.2 97.22 76.5 97.36 75.8 97.08C75.1 96.8 74.54 96.24 73.98 95.26C73.7 94.7 73.56 94.14 73.56 93.58C73.56 93.02 73.7 92.46 73.98 92.04C74.26 91.62 74.68 91.2 75.24 90.92C75.8 90.64 76.36 90.5 77.06 90.5L77.2 91.62C76.92 91.62 76.64 91.62 76.36 91.62C76.08 91.76 75.94 91.9 75.66 91.9Z" fill="white"/>
<path d="M84.9 92.3206L81.96 94.4206L78.18 89.2406L81.12 87.1406L81.82 87.9806L80 89.3806L80.84 90.5006L82.52 89.2406L83.22 90.0806L81.54 91.3406L82.52 92.7406L84.34 91.3406L84.9 92.3206Z" fill="white"/>
<path d="M87.1401 84.34C87.5601 84.76 87.8401 85.32 87.8401 85.88C87.8401 86.44 87.42 87 86.86 87.56L86.4401 87.98L87.9801 89.66L87.0001 90.64L82.5201 86.02L83.92 84.62C84.48 84.06 85.0401 83.78 85.6001 83.78C86.1601 83.64 86.5801 83.78 87.1401 84.34ZM85.6001 87.14L85.8801 86.86C86.1601 86.58 86.3001 86.3 86.4401 86.02C86.4401 85.74 86.4401 85.46 86.1601 85.32C85.8801 85.04 85.7401 85.04 85.4601 85.04C85.1801 85.04 85.0401 85.18 84.7601 85.46L84.3401 85.88L85.6001 87.14Z" fill="white"/>
<path d="M86.72 81.5408L87.8401 80.0008C88.4001 79.3008 88.82 78.8808 89.38 78.6008C89.94 78.3208 90.22 78.4608 90.78 78.8808C91.06 79.1608 91.3401 79.3007 91.3401 79.7207C91.4801 80.0007 91.3401 80.2808 91.3401 80.5608C91.6201 80.2808 91.9 80.1408 92.32 80.1408C92.6 80.1408 92.8801 80.2808 93.3001 80.5608C93.7201 80.8408 94.0001 81.4007 94.0001 81.8207C94.0001 82.3807 93.8601 82.9407 93.4401 83.5007L92.0401 85.4608L86.72 81.5408ZM89.66 81.9608L90.08 81.2608C90.36 80.9808 90.36 80.7008 90.36 80.5608C90.36 80.4208 90.22 80.1408 90.08 80.0008C89.94 79.8608 89.66 79.8608 89.52 79.8608C89.38 80.0008 89.1 80.1407 88.82 80.4207L88.4001 80.9808L89.66 81.9608ZM90.5001 82.6608L91.9001 83.6408L92.46 82.9408C92.74 82.6608 92.7401 82.3807 92.7401 82.1007C92.7401 81.8208 92.6 81.6808 92.32 81.5408C91.9 81.2608 91.48 81.4008 91.06 81.9608L90.5001 82.6608Z" fill="white"/>
<path d="M90.5 76.3593L91.06 75.2393L93.86 76.6393L94.56 77.0593L95.4 77.4793L92.32 72.7193L93.02 71.3193L98.76 74.1193L98.2 75.2393L95.4 73.8393C94.98 73.6993 94.56 73.4193 93.86 72.9993L96.94 77.7593L96.24 79.1593L90.5 76.3593Z" fill="white"/>
<path d="M95.4001 66.9799C95.2601 67.3999 95.4001 67.9599 95.6801 68.2399C95.9601 68.6599 96.3801 68.9399 97.0801 69.0799C98.4801 69.4999 99.3201 69.2199 99.6001 68.0999C99.7401 67.6799 99.7401 67.1199 99.7401 66.4199L100.86 66.6999C100.86 67.2599 100.86 67.8199 100.72 68.5199C100.44 69.3599 100.02 70.0599 99.3201 70.3399C98.6201 70.6199 97.7801 70.6199 96.8001 70.3399C96.1001 70.1999 95.6801 69.9199 95.2601 69.4999C94.8401 69.0799 94.5601 68.6599 94.4201 68.2399C94.2801 67.6799 94.2801 67.1199 94.4201 66.5599C94.5601 65.9999 94.8401 65.4399 95.4001 64.8799L96.3801 65.5799C96.2401 65.7199 96.1001 65.9999 95.9601 66.1399C95.5401 66.5599 95.5401 66.6999 95.4001 66.9799Z" fill="white"/>
<path fill-rule="evenodd" clip-rule="evenodd" d="M41.78 40.0996C42.3213 40.0996 42.76 40.5384 42.76 41.0796V50.3196C42.76 50.8608 42.3213 51.2996 41.78 51.2996H29.88C29.3388 51.2996 28.9 50.8608 28.9 50.3196C28.9 49.7784 29.3388 49.3396 29.88 49.3396H40.8V41.0796C40.8 40.5384 41.2388 40.0996 41.78 40.0996Z" fill="white"/>
<path fill-rule="evenodd" clip-rule="evenodd" d="M74.96 65.7202C74.96 65.179 75.3988 64.7402 75.94 64.7402H83.64C84.1813 64.7402 84.62 65.179 84.62 65.7202C84.62 66.2615 84.1813 66.7002 83.64 66.7002H75.94C75.3988 66.7002 74.96 66.2615 74.96 65.7202Z" fill="white"/>
<path fill-rule="evenodd" clip-rule="evenodd" d="M40.8 32.2603C40.8 31.719 41.2388 31.2803 41.78 31.2803H83.64C84.1813 31.2803 84.62 31.719 84.62 32.2603C84.62 32.8015 84.1813 33.2403 83.64 33.2403H42.76V37.0203C42.76 37.5615 42.3213 38.0003 41.78 38.0003H32.6002L26.66 50.5406V64.7403H32.26C32.8013 64.7403 33.24 65.179 33.24 65.7203C33.24 66.2615 32.8013 66.7003 32.26 66.7003H25.68C25.1388 66.7003 24.7 66.2615 24.7 65.7203V50.3203C24.7 50.1752 24.7323 50.0319 24.7944 49.9007L31.0944 36.6007C31.2565 36.2585 31.6013 36.0403 31.98 36.0403H40.8V32.2603Z" fill="white"/>
<path fill-rule="evenodd" clip-rule="evenodd" d="M41.78 65.7202C41.78 65.179 42.2188 64.7402 42.76 64.7402H65.58C66.1213 64.7402 66.56 65.179 66.56 65.7202C66.56 66.2615 66.1213 66.7002 65.58 66.7002H42.76C42.2188 66.7002 41.78 66.2615 41.78 65.7202Z" fill="white"/>
<path fill-rule="evenodd" clip-rule="evenodd" d="M64.6 65.7205C64.6 62.3793 67.4188 59.5605 70.76 59.5605C74.0839 59.5605 76.92 62.2221 76.92 65.7205C76.92 69.0444 74.2585 71.8805 70.76 71.8805C67.4362 71.8805 64.6 69.219 64.6 65.7205ZM70.76 61.5205C68.5013 61.5205 66.56 63.4618 66.56 65.7205C66.56 68.1021 68.4839 69.9205 70.76 69.9205C73.1416 69.9205 74.96 67.9967 74.96 65.7205C74.96 63.339 73.0362 61.5205 70.76 61.5205Z" fill="white"/>
<path fill-rule="evenodd" clip-rule="evenodd" d="M31.28 65.7205C31.28 62.3793 34.0988 59.5605 37.44 59.5605C40.7639 59.5605 43.6 62.2221 43.6 65.7205C43.6 69.0618 40.7813 71.8805 37.44 71.8805C34.1162 71.8805 31.28 69.219 31.28 65.7205ZM37.44 61.5205C35.1813 61.5205 33.24 63.4618 33.24 65.7205C33.24 68.1021 35.1639 69.9205 37.44 69.9205C39.6988 69.9205 41.64 67.9793 41.64 65.7205C41.64 63.339 39.7162 61.5205 37.44 61.5205Z" fill="white"/>
<path fill-rule="evenodd" clip-rule="evenodd" d="M74.54 48.7798C74.54 48.2386 74.9788 47.7998 75.52 47.7998H91.34C91.8813 47.7998 92.32 48.2386 92.32 48.7798C92.32 49.321 91.8813 49.7598 91.34 49.7598H75.52C74.9788 49.7598 74.54 49.321 74.54 48.7798Z" fill="white"/>
<path fill-rule="evenodd" clip-rule="evenodd" d="M74.54 40.94C74.54 40.3987 74.9788 39.96 75.52 39.96H87.42C87.9613 39.96 88.4 40.3987 88.4 40.94C88.4 41.4812 87.9613 41.92 87.42 41.92H75.52C74.9788 41.92 74.54 41.4812 74.54 40.94Z" fill="white"/>
<path fill-rule="evenodd" clip-rule="evenodd" d="M74.54 56.6206C74.54 56.0794 74.9788 55.6406 75.52 55.6406H95.26C95.8013 55.6406 96.24 56.0794 96.24 56.6206C96.24 57.1619 95.8013 57.6006 95.26 57.6006H75.52C74.9788 57.6006 74.54 57.1619 74.54 56.6206Z" fill="white"/>
<path fill-rule="evenodd" clip-rule="evenodd" d="M60.0321 37.6572C61.5106 36.0259 63.6179 35.7371 65.4698 36.2001C65.7035 36.2585 65.8907 36.433 65.9655 36.662C66.0402 36.891 65.992 37.1423 65.8378 37.3273L64.4378 39.0073C64.4243 39.0236 64.41 39.0392 64.395 39.0542L63.6867 39.7625L64.0667 41.4725L65.7768 41.8525L68.0251 39.6042C68.2034 39.4259 68.4639 39.3573 68.7069 39.4246C68.9499 39.4919 69.138 39.6848 69.1991 39.9294C69.6734 41.8266 69.204 43.9053 67.755 45.3542C66.4301 46.6791 64.6733 47.2028 63.0013 46.8879L51.795 58.0942C50.5417 59.3476 48.5584 59.3476 47.3051 58.0942C46.0517 56.8408 46.0517 54.8576 47.3051 53.6042L58.5114 42.3979C58.1975 40.7314 58.7168 38.9806 60.0321 37.6572ZM63.9548 37.4C62.8619 37.3838 61.8289 37.7536 61.0604 38.6075C61.0521 38.6166 61.0437 38.6255 61.035 38.6342C59.9475 39.7217 59.6034 41.1443 59.9554 42.435C60.0215 42.6774 59.9526 42.9366 59.775 43.1142L48.295 54.5942C47.5884 55.3008 47.5884 56.3976 48.295 57.1042C49.0017 57.8109 50.0984 57.8109 50.8051 57.1042L62.2851 45.6242C62.4627 45.4466 62.7219 45.3778 62.9642 45.4439C64.255 45.7959 65.6776 45.4517 66.7651 44.3642C67.5044 43.625 67.9099 42.6521 67.9699 41.6393L67.475 42.1342L66.495 43.1142C66.3258 43.2834 66.0818 43.3545 65.8482 43.3025L63.3282 42.7426C63.0629 42.6836 62.8557 42.4764 62.7967 42.2111L62.2367 39.6911C62.1848 39.4574 62.2558 39.2135 62.4251 39.0442L63.3826 38.0867L63.9548 37.4Z" fill="white"/>
<path fill-rule="evenodd" clip-rule="evenodd" d="M62.5651 49.6835C62.8384 49.4102 63.2817 49.4102 63.555 49.6835L67.475 53.6035C68.7284 54.8569 68.7284 56.8401 67.475 58.0935C66.2217 59.3469 64.2384 59.3469 62.9851 58.0935L59.0651 54.1735C58.7917 53.9001 58.7917 53.4569 59.0651 53.1835L62.5651 49.6835ZM60.55 53.6785L63.975 57.1035C64.6817 57.8102 65.7784 57.8102 66.4851 57.1035C67.1917 56.3969 67.1917 55.3001 66.4851 54.5935L63.06 51.1685L60.55 53.6785Z" fill="white"/>
<path fill-rule="evenodd" clip-rule="evenodd" d="M50.2451 40.8642C50.5184 40.5908 50.9616 40.5908 51.235 40.8642L55.995 45.6242C56.2684 45.8976 56.2684 46.3408 55.995 46.6142C55.7216 46.8875 55.2784 46.8875 55.0051 46.6142L50.2451 41.8542C49.9717 41.5808 49.9717 41.1376 50.2451 40.8642Z" fill="white"/>
<path fill-rule="evenodd" clip-rule="evenodd" d="M58.6451 49.2636C58.9184 48.9903 59.3616 48.9903 59.635 49.2636L61.875 51.5036C62.1484 51.777 62.1484 52.2202 61.875 52.4936C61.6016 52.7669 61.1584 52.7669 60.8851 52.4936L58.6451 50.2536C58.3717 49.9802 58.3717 49.537 58.6451 49.2636Z" fill="white"/>
<path fill-rule="evenodd" clip-rule="evenodd" d="M47.8421 36.8288C48.0635 36.5852 48.4247 36.5288 48.7098 36.6933L52.3498 38.7933C52.5384 38.9021 52.6656 39.0924 52.694 39.3082C52.7225 39.524 52.6489 39.7407 52.495 39.8946L49.555 42.8346C49.4026 42.987 49.1885 43.0607 48.9745 43.0344C48.7606 43.0081 48.5707 42.8846 48.4598 42.6998L46.3598 39.1998C46.2009 38.935 46.2343 38.5973 46.4421 38.3688L47.8421 36.8288ZM48.4987 38.1878L47.8279 38.9256L49.199 41.2107L50.8598 39.5499L48.4987 38.1878Z" fill="white"/>
<defs>
<linearGradient id="paint0_linear" x1="5.10243" y1="56.5072" x2="107.913" y2="56.5072" gradientUnits="userSpaceOnUse">
<stop/>
<stop offset="0.2356" stop-color="#070D10"/>
<stop offset="0.4558" stop-color="#17272E"/>
<stop offset="0.6698" stop-color="#223E4A"/>
<stop offset="0.8788" stop-color="#2B5262"/>
<stop offset="0.9835" stop-color="#2E5C6F"/>
</linearGradient>
</defs>
</svg>
